<svg width="20" height="20" viewBox="0 0 20 20" fill="none" xmlns="http://www.w3.org/2000/svg">
<path d="M3 2.375C2.65482 2.375 2.375 2.65482 2.375 3C2.375 3.34518 2.65482 3.625 3 3.625V2.375ZM15.6316 13.8882C15.9768 13.8882 16.2566 13.6083 16.2566 13.2632C16.2566 12.918 15.9768 12.6382 15.6316 12.6382V13.8882ZM6.17831 12.8096L6.70175 12.4681L6.17831 12.8096ZM6.60309 13.174L6.34514 13.7433L6.60309 13.174ZM4.69899 3.78029L4.08126 3.87533L4.69899 3.78029ZM3 3.625H3.78947V2.375H3V3.625ZM4.08126 3.87533L5.33144 12.0015L6.5669 11.8114L5.31673 3.68526L4.08126 3.87533ZM7.53057 13.8882H15.6316V12.6382H7.53057V13.8882ZM5.33144 12.0015C5.36704 12.2329 5.39861 12.4409 5.43852 12.6124C5.48021 12.7915 5.5402 12.9754 5.65487 13.1511L6.70175 12.4681C6.69839 12.4629 6.68085 12.4359 6.656 12.3291C6.62936 12.2146 6.60538 12.0615 6.5669 11.8114L5.33144 12.0015ZM7.53057 12.6382C7.27752 12.6382 7.12254 12.6377 7.00536 12.6288C6.89599 12.6205 6.86664 12.6073 6.86104 12.6047L6.34514 13.7433C6.53627 13.8299 6.72708 13.8613 6.91048 13.8752C7.08606 13.8886 7.29645 13.8882 7.53057 13.8882V12.6382ZM5.65487 13.1511C5.8239 13.4102 6.06337 13.6156 6.34514 13.7433L6.86104 12.6047C6.79602 12.5753 6.74076 12.5279 6.70175 12.4681L5.65487 13.1511ZM3.78947 3.625C3.93519 3.625 4.0591 3.73131 4.08126 3.87533L5.31673 3.68526C5.20075 2.93145 4.55215 2.375 3.78947 2.375V3.625Z" fill="black"/>
<path d="M9.31569 16.8157C9.31569 17.4698 8.7855 18 8.13148 18C7.47745 18 6.94727 17.4698 6.94727 16.8157C6.94727 16.1617 7.47745 15.6315 8.13148 15.6315C8.7855 15.6315 9.31569 16.1617 9.31569 16.8157Z" stroke="black" stroke-width="1.25" stroke-linecap="round"/>
<path d="M14.8421 16.8157C14.8421 17.4698 14.3119 18 13.6578 18C13.0038 18 12.4736 17.4698 12.4736 16.8157C12.4736 16.1617 13.0038 15.6315 13.6578 15.6315C14.3119 15.6315 14.8421 16.1617 14.8421 16.8157Z" stroke="black" stroke-width="1.25" stroke-linecap="round"/>
<path d="M16.0603 9.17595L15.4929 8.91404L16.0603 9.17595ZM15.7067 9.8044L16.1536 10.2412L15.7067 9.8044ZM15.3264 10.0477L15.1171 9.4588L15.3264 10.0477ZM17.0023 5.14908L16.6489 5.66458L17.0023 5.14908ZM16.9518 7.24437L16.3843 6.98246L16.9518 7.24437ZM17.4227 5.80612L18.0388 5.70127L17.4227 5.80612ZM5.36816 5.59888H15.4991V4.34888H5.36816V5.59888ZM16.3843 6.98246L15.4929 8.91404L16.6278 9.43786L17.5193 7.50628L16.3843 6.98246ZM14.6092 9.48046C14.6056 9.48046 14.602 9.48046 14.5983 9.48046C14.5947 9.48046 14.5911 9.48046 14.5874 9.48046C14.5838 9.48046 14.5801 9.48046 14.5765 9.48046C14.5728 9.48046 14.5691 9.48046 14.5655 9.48046C14.5618 9.48046 14.5581 9.48046 14.5544 9.48046C14.5507 9.48046 14.547 9.48046 14.5433 9.48046C14.5396 9.48046 14.5359 9.48046 14.5322 9.48046C14.5284 9.48046 14.5247 9.48046 14.521 9.48046C14.5172 9.48046 14.5135 9.48046 14.5097 9.48046C14.506 9.48046 14.5022 9.48046 14.4984 9.48046C14.4946 9.48046 14.4909 9.48046 14.4871 9.48046C14.4833 9.48046 14.4795 9.48046 14.4757 9.48046C14.4719 9.48046 14.4681 9.48046 14.4643 9.48046C14.4604 9.48046 14.4566 9.48046 14.4528 9.48046C14.449 9.48046 14.4451 9.48046 14.4413 9.48046C14.4374 9.48046 14.4336 9.48046 14.4297 9.48046C14.4258 9.48046 14.422 9.48046 14.4181 9.48046C14.4142 9.48046 14.4103 9.48046 14.4064 9.48046C14.4025 9.48046 14.3986 9.48046 14.3947 9.48046C14.3908 9.48046 14.3869 9.48046 14.383 9.48046C14.379 9.48046 14.3751 9.48046 14.3712 9.48046C14.3672 9.48046 14.3633 9.48046 14.3593 9.48046C14.3554 9.48046 14.3514 9.48046 14.3474 9.48046C14.3435 9.48046 14.3395 9.48046 14.3355 9.48046C14.3315 9.48046 14.3275 9.48046 14.3235 9.48046C14.3195 9.48046 14.3155 9.48046 14.3115 9.48046C14.3075 9.48046 14.3035 9.48046 14.2994 9.48046C14.2954 9.48046 14.2914 9.48046 14.2873 9.48046C14.2833 9.48046 14.2792 9.48046 14.2752 9.48046C14.2711 9.48046 14.2671 9.48046 14.263 9.48046C14.2589 9.48046 14.2548 9.48046 14.2507 9.48046C14.2467 9.48046 14.2426 9.48046 14.2385 9.48046C14.2344 9.48046 14.2303 9.48046 14.2261 9.48046C14.222 9.48046 14.2179 9.48046 14.2138 9.48046C14.2096 9.48046 14.2055 9.48046 14.2014 9.48046C14.1972 9.48046 14.1931 9.48046 14.1889 9.48046C14.1847 9.48046 14.1806 9.48046 14.1764 9.48046C14.1722 9.48046 14.168 9.48046 14.1639 9.48046C14.1597 9.48046 14.1555 9.48046 14.1513 9.48046C14.1471 9.48046 14.1429 9.48046 14.1386 9.48046C14.1344 9.48046 14.1302 9.48046 14.126 9.48046C14.1218 9.48046 14.1175 9.48046 14.1133 9.48046C14.109 9.48046 14.1048 9.48046 14.1005 9.48046C14.0963 9.48046 14.092 9.48046 14.0877 9.48046C14.0835 9.48046 14.0792 9.48046 14.0749 9.48046C14.0706 9.48046 14.0663 9.48046 14.062 9.48046C14.0577 9.48046 14.0534 9.48046 14.0491 9.48046C14.0448 9.48046 14.0405 9.48046 14.0361 9.48046C14.0318 9.48046 14.0275 9.48046 14.0231 9.48046C14.0188 9.48046 14.0145 9.48046 14.0101 9.48046C14.0057 9.48046 14.0014 9.48046 13.997 9.48046C13.9927 9.48046 13.9883 9.48046 13.9839 9.48046C13.9795 9.48046 13.9751 9.48046 13.9707 9.48046C13.9663 9.48046 13.9619 9.48046 13.9575 9.48046C13.9531 9.48046 13.9487 9.48046 13.9443 9.48046C13.9399 9.48046 13.9354 9.48046 13.931 9.48046C13.9266 9.48046 13.9221 9.48046 13.9177 9.48046C13.9132 9.48046 13.9088 9.48046 13.9043 9.48046C13.8999 9.48046 13.8954 9.48046 13.8909 9.48046C13.8865 9.48046 13.882 9.48046 13.8775 9.48046C13.873 9.48046 13.8685 9.48046 13.864 9.48046C13.8595 9.48046 13.855 9.48046 13.8505 9.48046C13.846 9.48046 13.8415 9.48046 13.8369 9.48046C13.8324 9.48046 13.8279 9.48046 13.8234 9.48046C13.8188 9.48046 13.8143 9.48046 13.8097 9.48046C13.8052 9.48046 13.8006 9.48046 13.796 9.48046C13.7915 9.48046 13.7869 9.48046 13.7823 9.48046C13.7778 9.48046 13.7732 9.48046 13.7686 9.48046C13.764 9.48046 13.7594 9.48046 13.7548 9.48046C13.7502 9.48046 13.7456 9.48046 13.741 9.48046C13.7364 9.48046 13.7318 9.48046 13.7271 9.48046C13.7225 9.48046 13.7179 9.48046 13.7132 9.48046C13.7086 9.48046 13.7039 9.48046 13.6993 9.48046C13.6946 9.48046 13.69 9.48046 13.6853 9.48046C13.6807 9.48046 13.676 9.48046 13.6713 9.48046C13.6666 9.48046 13.662 9.48046 13.6573 9.48046C13.6526 9.48046 13.6479 9.48046 13.6432 9.48046C13.6385 9.48046 13.6338 9.48046 13.6291 9.48046C13.6244 9.48046 13.6196 9.48046 13.6149 9.48046C13.6102 9.48046 13.6055 9.48046 13.6007 9.48046C13.596 9.48046 13.5912 9.48046 13.5865 9.48046C13.5817 9.48046 13.577 9.48046 13.5722 9.48046C13.5675 9.48046 13.5627 9.48046 13.5579 9.48046C13.5532 9.48046 13.5484 9.48046 13.5436 9.48046C13.5388 9.48046 13.534 9.48046 13.5292 9.48046C13.5244 9.48046 13.5196 9.48046 13.5148 9.48046C13.51 9.48046 13.5052 9.48046 13.5004 9.48046C13.4956 9.48046 13.4907 9.48046 13.4859 9.48046C13.4811 9.48046 13.4762 9.48046 13.4714 9.48046C13.4666 9.48046 13.4617 9.48046 13.4569 9.48046C13.452 9.48046 13.4471 9.48046 13.4423 9.48046C13.4374 9.48046 13.4325 9.48046 13.4277 9.48046C13.4228 9.48046 13.4179 9.48046 13.413 9.48046C13.4081 9.48046 13.4032 9.48046 13.3983 9.48046C13.3934 9.48046 13.3885 9.48046 13.3836 9.48046C13.3787 9.48046 13.3738 9.48046 13.3689 9.48046C13.364 9.48046 13.359 9.48046 13.3541 9.48046C13.3492 9.48046 13.3442 9.48046 13.3393 9.48046C13.3343 9.48046 13.3294 9.48046 13.3244 9.48046C13.3195 9.48046 13.3145 9.48046 13.3095 9.48046C13.3046 9.48046 13.2996 9.48046 13.2946 9.48046C13.2897 9.48046 13.2847 9.48046 13.2797 9.48046C13.2747 9.48046 13.2697 9.48046 13.2647 9.48046C13.2597 9.48046 13.2547 9.48046 13.2497 9.48046C13.2447 9.48046 13.2397 9.48046 13.2346 9.48046C13.2296 9.48046 13.2246 9.48046 13.2196 9.48046C13.2145 9.48046 13.2095 9.48046 13.2045 9.48046C13.1994 9.48046 13.1944 9.48046 13.1893 9.48046C13.1843 9.48046 13.1792 9.48046 13.1741 9.48046C13.1691 9.48046 13.164 9.48046 13.1589 9.48046C13.1539 9.48046 13.1488 9.48046 13.1437 9.48046C13.1386 9.48046 13.1335 9.48046 13.1284 9.48046C13.1233 9.48046 13.1182 9.48046 13.1131 9.48046C13.108 9.48046 13.1029 9.48046 13.0978 9.48046C13.0927 9.48046 13.0876 9.48046 13.0825 9.48046C13.0773 9.48046 13.0722 9.48046 13.0671 9.48046C13.0619 9.48046 13.0568 9.48046 13.0516 9.48046C13.0465 9.48046 13.0413 9.48046 13.0362 9.48046C13.031 9.48046 13.0259 9.48046 13.0207 9.48046C13.0155 9.48046 13.0104 9.48046 13.0052 9.48046C13 9.48046 12.9948 9.48046 12.9897 9.48046C12.9845 9.48046 12.9793 9.48046 12.9741 9.48046C12.9689 9.48046 12.9637 9.48046 12.9585 9.48046C12.9533 9.48046 12.9481 9.48046 12.9429 9.48046C12.9376 9.48046 12.9324 9.48046 12.9272 9.48046C12.922 9.48046 12.9167 9.48046 12.9115 9.48046C12.9063 9.48046 12.901 9.48046 12.8958 9.48046C12.8905 9.48046 12.8853 9.48046 12.88 9.48046C12.8748 9.48046 12.8695 9.48046 12.8643 9.48046C12.859 9.48046 12.8537 9.48046 12.8485 9.48046C12.8432 9.48046 12.8379 9.48046 12.8326 9.48046C12.8274 9.48046 12.8221 9.48046 12.8168 9.48046C12.8115 9.48046 12.8062 9.48046 12.8009 9.48046C12.7956 9.48046 12.7903 9.48046 12.785 9.48046C12.7797 9.48046 12.7743 9.48046 12.769 9.48046C12.7637 9.48046 12.7584 9.48046 12.7531 9.48046C12.7477 9.48046 12.7424 9.48046 12.7371 9.48046C12.7317 9.48046 12.7264 9.48046 12.721 9.48046C12.7157 9.48046 12.7103 9.48046 12.705 9.48046C12.6996 9.48046 12.6943 9.48046 12.6889 9.48046C12.6835 9.48046 12.6782 9.48046 12.6728 9.48046C12.6674 9.48046 12.662 9.48046 12.6567 9.48046C12.6513 9.48046 12.6459 9.48046 12.6405 9.48046C12.6351 9.48046 12.6297 9.48046 12.6243 9.48046C12.6189 9.48046 12.6135 9.48046 12.6081 9.48046C12.6027 9.48046 12.5973 9.48046 12.5919 9.48046C12.5864 9.48046 12.581 9.48046 12.5756 9.48046C12.5702 9.48046 12.5647 9.48046 12.5593 9.48046C12.5539 9.48046 12.5484 9.48046 12.543 9.48046C12.5375 9.48046 12.5321 9.48046 12.5266 9.48046C12.5212 9.48046 12.5157 9.48046 12.5103 9.48046C12.5048 9.48046 12.4994 9.48046 12.4939 9.48046C12.4884 9.48046 12.4829 9.48046 12.4775 9.48046C12.472 9.48046 12.4665 9.48046 12.461 9.48046C12.4555 9.48046 12.4501 9.48046 12.4446 9.48046C12.4391 9.48046 12.4336 9.48046 12.4281 9.48046C12.4226 9.48046 12.4171 9.48046 12.4116 9.48046C12.4061 9.48046 12.4005 9.48046 12.395 9.48046C12.3895 9.48046 12.384 9.48046 12.3785 9.48046C12.3729 9.48046 12.3674 9.48046 12.3619 9.48046C12.3563 9.48046 12.3508 9.48046 12.3453 9.48046C12.3397 9.48046 12.3342 9.48046 12.3286 9.48046C12.3231 9.48046 12.3175 9.48046 12.312 9.48046C12.3064 9.48046 12.3008 9.48046 12.2953 9.48046C12.2897 9.48046 12.2842 9.48046 12.2786 9.48046C12.273 9.48046 12.2674 9.48046 12.2619 9.48046C12.2563 9.48046 12.2507 9.48046 12.2451 9.48046C12.2395 9.48046 12.2339 9.48046 12.2283 9.48046C12.2227 9.48046 12.2171 9.48046 12.2115 9.48046C12.2059 9.48046 12.2003 9.48046 12.1947 9.48046C12.1891 9.48046 12.1835 9.48046 12.1779 9.48046C12.1723 9.48046 12.1666 9.48046 12.161 9.48046C12.1554 9.48046 12.1498 9.48046 12.1441 9.48046C12.1385 9.48046 12.1329 9.48046 12.1272 9.48046C12.1216 9.48046 12.1159 9.48046 12.1103 9.48046C12.1046 9.48046 12.099 9.48046 12.0933 9.48046C12.0877 9.48046 12.082 9.48046 12.0764 9.48046C12.0707 9.48046 12.065 9.48046 12.0594 9.48046C12.0537 9.48046 12.048 9.48046 12.0424 9.48046C12.0367 9.48046 12.031 9.48046 12.0253 9.48046C12.0197 9.48046 12.014 9.48046 12.0083 9.48046C12.0026 9.48046 11.9969 9.48046 11.9912 9.48046C11.9855 9.48046 11.9798 9.48046 11.9741 9.48046C11.9684 9.48046 11.9627 9.48046 11.957 9.48046C11.9513 9.48046 11.9456 9.48046 11.9399 9.48046C11.9341 9.48046 11.9284 9.48046 11.9227 9.48046C11.917 9.48046 11.9113 9.48046 11.9055 9.48046C11.8998 9.48046 11.8941 9.48046 11.8883 9.48046C11.8826 9.48046 11.8769 9.48046 11.8711 9.48046C11.8654 9.48046 11.8596 9.48046 11.8539 9.48046C11.8481 9.48046 11.8424 9.48046 11.8366 9.48046C11.8309 9.48046 11.8251 9.48046 11.8194 9.48046C11.8136 9.48046 11.8078 9.48046 11.8021 9.48046C11.7963 9.48046 11.7905 9.48046 11.7848 9.48046C11.779 9.48046 11.7732 9.48046 11.7674 9.48046C11.7616 9.48046 11.7559 9.48046 11.7501 9.48046C11.7443 9.48046 11.7385 9.48046 11.7327 9.48046C11.7269 9.48046 11.7211 9.48046 11.7153 9.48046C11.7095 9.48046 11.7037 9.48046 11.6979 9.48046C11.6921 9.48046 11.6863 9.48046 11.6805 9.48046C11.6747 9.48046 11.6689 9.48046 11.6631 9.48046C11.6573 9.48046 11.6514 9.48046 11.6456 9.48046C11.6398 9.48046 11.634 9.48046 11.6282 9.48046C11.6223 9.48046 11.6165 9.48046 11.6107 9.48046C11.6048 9.48046 11.599 9.48046 11.5932 9.48046C11.5873 9.48046 11.5815 9.48046 11.5756 9.48046C11.5698 9.48046 11.5639 9.48046 11.5581 9.48046C11.5522 9.48046 11.5464 9.48046 11.5405 9.48046C11.5347 9.48046 11.5288 9.48046 11.523 9.48046C11.5171 9.48046 11.5112 9.48046 11.5054 9.48046C11.4995 9.48046 11.4936 9.48046 11.4878 9.48046C11.4819 9.48046 11.476 9.48046 11.4702 9.48046C11.4643 9.48046 11.4584 9.48046 11.4525 9.48046C11.4466 9.48046 11.4408 9.48046 11.4349 9.48046C11.429 9.48046 11.4231 9.48046 11.4172 9.48046C11.4113 9.48046 11.4054 9.48046 11.3995 9.48046C11.3936 9.48046 11.3877 9.48046 11.3818 9.48046C11.3759 9.48046 11.37 9.48046 11.3641 9.48046C11.3582 9.48046 11.3523 9.48046 11.3464 9.48046C11.3405 9.48046 11.3345 9.48046 11.3286 9.48046C11.3227 9.48046 11.3168 9.48046 11.3109 9.48046C11.305 9.48046 11.299 9.48046 11.2931 9.48046C11.2872 9.48046 11.2812 9.48046 11.2753 9.48046C11.2694 9.48046 11.2635 9.48046 11.2575 9.48046C11.2516 9.48046 11.2456 9.48046 11.2397 9.48046C11.2338 9.48046 11.2278 9.48046 11.2219 9.48046C11.2159 9.48046 11.21 9.48046 11.204 9.48046C11.1981 9.48046 11.1921 9.48046 11.1862 9.48046C11.1802 9.48046 11.1743 9.48046 11.1683 9.48046C11.1624 9.48046 11.1564 9.48046 11.1504 9.48046C11.1445 9.48046 11.1385 9.48046 11.1325 9.48046C11.1266 9.48046 11.1206 9.48046 11.1146 9.48046C11.1087 9.48046 11.1027 9.48046 11.0967 9.48046C11.0907 9.48046 11.0847 9.48046 11.0788 9.48046C11.0728 9.48046 11.0668 9.48046 11.0608 9.48046C11.0548 9.48046 11.0489 9.48046 11.0429 9.48046C11.0369 9.48046 11.0309 9.48046 11.0249 9.48046C11.0189 9.48046 11.0129 9.48046 11.0069 9.48046C11.0009 9.48046 10.9949 9.48046 10.9889 9.48046C10.9829 9.48046 10.9769 9.48046 10.9709 9.48046C10.9649 9.48046 10.9589 9.48046 10.9529 9.48046C10.9469 9.48046 10.9409 9.48046 10.9349 9.48046C10.9289 9.48046 10.9228 9.48046 10.9168 9.48046C10.9108 9.48046 10.9048 9.48046 10.8988 9.48046C10.8928 9.48046 10.8867 9.48046 10.8807 9.48046C10.8747 9.48046 10.8687 9.48046 10.8626 9.48046C10.8566 9.48046 10.8506 9.48046 10.8446 9.48046C10.8385 9.48046 10.8325 9.48046 10.8265 9.48046C10.8204 9.48046 10.8144 9.48046 10.8084 9.48046C10.8023 9.48046 10.7963 9.48046 10.7902 9.48046C10.7842 9.48046 10.7782 9.48046 10.7721 9.48046C10.7661 9.48046 10.76 9.48046 10.754 9.48046C10.7479 9.48046 10.7419 9.48046 10.7358 9.48046C10.7298 9.48046 10.7237 9.48046 10.7177 9.48046C10.7116 9.48046 10.7056 9.48046 10.6995 9.48046C10.6935 9.48046 10.6874 9.48046 10.6814 9.48046C10.6753 9.48046 10.6692 9.48046 10.6632 9.48046C10.6571 9.48046 10.6511 9.48046 10.645 9.48046C10.6389 9.48046 10.6329 9.48046 10.6268 9.48046C10.6207 9.48046 10.6147 9.48046 10.6086 9.48046C10.6025 9.48046 10.5964 9.48046 10.5904 9.48046C10.5843 9.48046 10.5782 9.48046 10.5721 9.48046C10.5661 9.48046 10.56 9.48046 10.5539 9.48046C10.5478 9.48046 10.5417 9.48046 10.5357 9.48046C10.5296 9.48046 10.5235 9.48046 10.5174 9.48046C10.5113 9.48046 10.5052 9.48046 10.4992 9.48046C10.4931 9.48046 10.487 9.48046 10.4809 9.48046C10.4748 9.48046 10.4687 9.48046 10.4626 9.48046C10.4565 9.48046 10.4504 9.48046 10.4443 9.48046C10.4383 9.48046 10.4322 9.48046 10.4261 9.48046C10.42 9.48046 10.4139 9.48046 10.4078 9.48046C10.4017 9.48046 10.3956 9.48046 10.3895 9.48046C10.3834 9.48046 10.3773 9.48046 10.3712 9.48046C10.3651 9.48046 10.359 9.48046 10.3529 9.48046C10.3468 9.48046 10.3406 9.48046 10.3345 9.48046C10.3284 9.48046 10.3223 9.48046 10.3162 9.48046C10.3101 9.48046 10.304 9.48046 10.2979 9.48046C10.2918 9.48046 10.2857 9.48046 10.2795 9.48046C10.2734 9.48046 10.2673 9.48046 10.2612 9.48046C10.2551 9.48046 10.249 9.48046 10.2429 9.48046C10.2367 9.48046 10.2306 9.48046 10.2245 9.48046C10.2184 9.48046 10.2123 9.48046 10.2061 9.48046C10.2 9.48046 10.1939 9.48046 10.1878 9.48046C10.1817 9.48046 10.1755 9.48046 10.1694 9.48046C10.1633 9.48046 10.1572 9.48046 10.151 9.48046C10.1449 9.48046 10.1388 9.48046 10.1327 9.48046C10.1265 9.48046 10.1204 9.48046 10.1143 9.48046C10.1081 9.48046 10.102 9.48046 10.0959 9.48046C10.0898 9.48046 10.0836 9.48046 10.0775 9.48046C10.0714 9.48046 10.0652 9.48046 10.0591 9.48046C10.053 9.48046 10.0468 9.48046 10.0407 9.48046C10.0346 9.48046 10.0284 9.48046 10.0223 9.48046C10.0162 9.48046 10.01 9.48046 10.0039 9.48046C9.99776 9.48046 9.99162 9.48046 9.98548 9.48046C9.97934 9.48046 9.97321 9.48046 9.96707 9.48046C9.96093 9.48046 9.95479 9.48046 9.94865 9.48046C9.94251 9.48046 9.93637 9.48046 9.93023 9.48046C9.92409 9.48046 9.91795 9.48046 9.91181 9.48046C9.90567 9.48046 9.89953 9.48046 9.89339 9.48046C9.88724 9.48046 9.8811 9.48046 9.87496 9.48046C9.86882 9.48046 9.86267 9.48046 9.85653 9.48046C9.85038 9.48046 9.84424 9.48046 9.8381 9.48046C9.83195 9.48046 9.82581 9.48046 9.81966 9.48046C9.81352 9.48046 9.80737 9.48046 9.80123 9.48046C9.79508 9.48046 9.78893 9.48046 9.78279 9.48046C9.77664 9.48046 9.7705 9.48046 9.76435 9.48046C9.7582 9.48046 9.75206 9.48046 9.74591 9.48046C9.73976 9.48046 9.73361 9.48046 9.72747 9.48046C9.72132 9.48046 9.71517 9.48046 9.70902 9.48046C9.70288 9.48046 9.69673 9.48046 9.69058 9.48046C9.68443 9.48046 9.67828 9.48046 9.67213 9.48046C9.66599 9.48046 9.65984 9.48046 9.65369 9.48046C9.64754 9.48046 9.64139 9.48046 9.63524 9.48046C9.62909 9.48046 9.62294 9.48046 9.6168 9.48046C9.61065 9.48046 9.6045 9.48046 9.59835 9.48046C9.5922 9.48046 9.58605 9.48046 9.5799 9.48046C9.57375 9.48046 9.5676 9.48046 9.56145 9.48046C9.55531 9.48046 9.54916 9.48046 9.54301 9.48046C9.53686 9.48046 9.53071 9.48046 9.52456 9.48046C9.51841 9.48046 9.51226 9.48046 9.50612 9.48046C9.49997 9.48046 9.49382 9.48046 9.48767 9.48046C9.48152 9.48046 9.47537 9.48046 9.46923 9.48046C9.46308 9.48046 9.45693 9.48046 9.45078 9.48046C9.44464 9.48046 9.43849 9.48046 9.43234 9.48046C9.42619 9.48046 9.42005 9.48046 9.4139 9.48046C9.40775 9.48046 9.40161 9.48046 9.39546 9.48046C9.38932 9.48046 9.38317 9.48046 9.37702 9.48046C9.37088 9.48046 9.36473 9.48046 9.35859 9.48046C9.35244 9.48046 9.3463 9.48046 9.34015 9.48046C9.33401 9.48046 9.32787 9.48046 9.32172 9.48046C9.31558 9.48046 9.30944 9.48046 9.30329 9.48046C9.29715 9.48046 9.29101 9.48046 9.28486 9.48046C9.27872 9.48046 9.27258 9.48046 9.26644 9.48046C9.2603 9.48046 9.25416 9.48046 9.24802 9.48046C9.24188 9.48046 9.23574 9.48046 9.2296 9.48046C9.22346 9.48046 9.21732 9.48046 9.21118 9.48046C9.20504 9.48046 9.19891 9.48046 9.19277 9.48046C9.18663 9.48046 9.1805 9.48046 9.17436 9.48046C9.16822 9.48046 9.16209 9.48046 9.15595 9.48046C9.14982 9.48046 9.14368 9.48046 9.13755 9.48046C9.13142 9.48046 9.12528 9.48046 9.11915 9.48046C9.11302 9.48046 9.10689 9.48046 9.10076 9.48046C9.09462 9.48046 9.08849 9.48046 9.08236 9.48046C9.07623 9.48046 9.07011 9.48046 9.06398 9.48046C9.05785 9.48046 9.05172 9.48046 9.04559 9.48046C9.03947 9.48046 9.03334 9.48046 9.02722 9.48046C9.02109 9.48046 9.01497 9.48046 9.00884 9.48046C9.00272 9.48046 8.9966 9.48046 8.99047 9.48046C8.98435 9.48046 8.97823 9.48046 8.97211 9.48046C8.96599 9.48046 8.95987 9.48046 8.95375 9.48046C8.94763 9.48046 8.94152 9.48046 8.9354 9.48046C8.92928 9.48046 8.92317 9.48046 8.91705 9.48046C8.91094 9.48046 8.90482 9.48046 8.89871 9.48046C8.8926 9.48046 8.88648 9.48046 8.88037 9.48046C8.87426 9.48046 8.86815 9.48046 8.86204 9.48046C8.85593 9.48046 8.84982 9.48046 8.84372 9.48046C8.83761 9.48046 8.8315 9.48046 8.8254 9.48046C8.81929 9.48046 8.81319 9.48046 8.80709 9.48046C8.80098 9.48046 8.79488 9.48046 8.78878 9.48046C8.78268 9.48046 8.77658 9.48046 8.77048 9.48046C8.76438 9.48046 8.75829 9.48046 8.75219 9.48046C8.74609 9.48046 8.74 9.48046 8.73391 9.48046C8.72781 9.48046 8.72172 9.48046 8.71563 9.48046C8.70954 9.48046 8.70345 9.48046 8.69736 9.48046C8.69127 9.48046 8.68518 9.48046 8.67909 9.48046C8.67301 9.48046 8.66692 9.48046 8.66084 9.48046C8.65475 9.48046 8.64867 9.48046 8.64259 9.48046C8.63651 9.48046 8.63043 9.48046 8.62435 9.48046C8.61827 9.48046 8.61219 9.48046 8.60612 9.48046C8.60004 9.48046 8.59397 9.48046 8.58789 9.48046C8.58182 9.48046 8.57575 9.48046 8.56968 9.48046C8.56361 9.48046 8.55754 9.48046 8.55147 9.48046C8.5454 9.48046 8.53934 9.48046 8.53327 9.48046C8.52721 9.48046 8.52114 9.48046 8.51508 9.48046C8.50902 9.48046 8.50296 9.48046 8.4969 9.48046C8.49084 9.48046 8.48479 9.48046 8.47873 9.48046C8.47267 9.48046 8.46662 9.48046 8.46057 9.48046C8.45451 9.48046 8.44846 9.48046 8.44241 9.48046C8.43637 9.48046 8.43032 9.48046 8.42427 9.48046C8.41822 9.48046 8.41218 9.48046 8.40614 9.48046C8.40009 9.48046 8.39405 9.48046 8.38801 9.48046C8.38197 9.48046 8.37594 9.48046 8.3699 9.48046C8.36386 9.48046 8.35783 9.48046 8.3518 9.48046C8.34576 9.48046 8.33973 9.48046 8.3337 9.48046C8.32767 9.48046 8.32165 9.48046 8.31562 9.48046C8.30959 9.48046 8.30357 9.48046 8.29755 9.48046C8.29153 9.48046 8.2855 9.48046 8.27949 9.48046C8.27347 9.48046 8.26745 9.48046 8.26144 9.48046C8.25542 9.48046 8.24941 9.48046 8.2434 9.48046C8.23738 9.48046 8.23137 9.48046 8.22537 9.48046C8.21936 9.48046 8.21335 9.48046 8.20735 9.48046C8.20135 9.48046 8.19535 9.48046 8.18935 9.48046C8.18335 9.48046 8.17735 9.48046 8.17135 9.48046C8.16536 9.48046 8.15936 9.48046 8.15337 9.48046C8.14738 9.48046 8.14139 9.48046 8.1354 9.48046C8.12941 9.48046 8.12343 9.48046 8.11744 9.48046C8.11146 9.48046 8.10548 9.48046 8.0995 9.48046C8.09352 9.48046 8.08754 9.48046 8.08156 9.48046C8.07559 9.48046 8.06962 9.48046 8.06364 9.48046C8.05767 9.48046 8.0517 9.48046 8.04574 9.48046C8.03977 9.48046 8.0338 9.48046 8.02784 9.48046C8.02188 9.48046 8.01592 9.48046 8.00996 9.48046C8.004 9.48046 7.99805 9.48046 7.99209 9.48046C7.98614 9.48046 7.98019 9.48046 7.97424 9.48046C7.96829 9.48046 7.96234 9.48046 7.9564 9.48046C7.95045 9.48046 7.94451 9.48046 7.93857 9.48046C7.93263 9.48046 7.92669 9.48046 7.92075 9.48046C7.91482 9.48046 7.90889 9.48046 7.90295 9.48046C7.89702 9.48046 7.8911 9.48046 7.88517 9.48046C7.87924 9.48046 7.87332 9.48046 7.8674 9.48046C7.86148 9.48046 7.85556 9.48046 7.84964 9.48046C7.84372 9.48046 7.83781 9.48046 7.8319 9.48046C7.82599 9.48046 7.82008 9.48046 7.81417 9.48046C7.80826 9.48046 7.80236 9.48046 7.79646 9.48046C7.79056 9.48046 7.78466 9.48046 7.77876 9.48046C7.77286 9.48046 7.76697 9.48046 7.76108 9.48046C7.75519 9.48046 7.7493 9.48046 7.74341 9.48046C7.73752 9.48046 7.73164 9.48046 7.72576 9.48046C7.71988 9.48046 7.714 9.48046 7.70812 9.48046C7.70225 9.48046 7.69637 9.48046 7.6905 9.48046C7.68463 9.48046 7.67876 9.48046 7.6729 9.48046C7.66703 9.48046 7.66117 9.48046 7.65531 9.48046C7.64945 9.48046 7.64359 9.48046 7.63774 9.48046C7.63189 9.48046 7.62603 9.48046 7.62018 9.48046C7.61434 9.48046 7.60849 9.48046 7.60265 9.48046C7.5968 9.48046 7.59096 9.48046 7.58512 9.48046C7.57929 9.48046 7.57345 9.48046 7.56762 9.48046C7.56179 9.48046 7.55596 9.48046 7.55013 9.48046C7.5443 9.48046 7.53848 9.48046 7.53266 9.48046C7.52684 9.48046 7.52102 9.48046 7.51521 9.48046C7.50939 9.48046 7.50358 9.48046 7.49777 9.48046C7.49196 9.48046 7.48616 9.48046 7.48035 9.48046C7.47455 9.48046 7.46875 9.48046 7.46295 9.48046C7.45715 9.48046 7.45136 9.48046 7.44557 9.48046C7.43978 9.48046 7.43399 9.48046 7.42821 9.48046C7.42242 9.48046 7.41664 9.48046 7.41086 9.48046C7.40508 9.48046 7.3993 9.48046 7.39353 9.48046C7.38776 9.48046 7.38199 9.48046 7.37622 9.48046C7.37046 9.48046 7.36469 9.48046 7.35893 9.48046C7.35317 9.48046 7.34741 9.48046 7.34166 9.48046C7.33591 9.48046 7.33016 9.48046 7.32441 9.48046C7.31866 9.48046 7.31292 9.48046 7.30717 9.48046C7.30143 9.48046 7.2957 9.48046 7.28996 9.48046C7.28423 9.48046 7.27849 9.48046 7.27277 9.48046C7.26704 9.48046 7.26131 9.48046 7.25559 9.48046C7.24987 9.48046 7.24415 9.48046 7.23844 9.48046C7.23272 9.48046 7.22701 9.48046 7.2213 9.48046C7.21559 9.48046 7.20989 9.48046 7.20419 9.48046C7.19848 9.48046 7.19279 9.48046 7.18709 9.48046C7.1814 9.48046 7.17571 9.48046 7.17002 9.48046C7.16433 9.48046 7.15864 9.48046 7.15296 9.48046C7.14728 9.48046 7.14161 9.48046 7.13593 9.48046C7.13026 9.48046 7.12459 9.48046 7.11892 9.48046C7.11325 9.48046 7.10759 9.48046 7.10193 9.48046C7.09627 9.48046 7.09061 9.48046 7.08496 9.48046C7.0793 9.48046 7.07365 9.48046 7.06801 9.48046C7.06236 9.48046 7.05672 9.48046 7.05108 9.48046C7.04544 9.48046 7.03981 9.48046 7.03418 9.48046C7.02854 9.48046 7.02292 9.48046 7.01729 9.48046C7.01167 9.48046 7.00605 9.48046 7.00043 9.48046C6.99481 9.48046 6.9892 9.48046 6.98359 9.48046C6.97798 9.48046 6.97238 9.48046 6.96677 9.48046C6.96117 9.48046 6.95557 9.48046 6.94998 9.48046C6.94438 9.48046 6.93879 9.48046 6.93321 9.48046C6.92762 9.48046 6.92204 9.48046 6.91646 9.48046C6.91088 9.48046 6.9053 9.48046 6.89973 9.48046C6.89416 9.48046 6.88859 9.48046 6.88303 9.48046C6.87746 9.48046 6.8719 9.48046 6.86634 9.48046C6.86079 9.48046 6.85524 9.48046 6.84969 9.48046C6.84414 9.48046 6.83859 9.48046 6.83305 9.48046C6.82751 9.48046 6.82198 9.48046 6.81644 9.48046C6.81091 9.48046 6.80538 9.48046 6.79986 9.48046C6.79433 9.48046 6.78881 9.48046 6.78329 9.48046C6.77778 9.48046 6.77226 9.48046 6.76675 9.48046C6.76125 9.48046 6.75574 9.48046 6.75024 9.48046C6.74474 9.48046 6.73924 9.48046 6.73375 9.48046C6.72826 9.48046 6.72277 9.48046 6.71728 9.48046C6.7118 9.48046 6.70632 9.48046 6.70084 9.48046C6.69537 9.48046 6.6899 9.48046 6.68443 9.48046C6.67896 9.48046 6.6735 9.48046 6.66804 9.48046C6.66258 9.48046 6.65712 9.48046 6.65167 9.48046C6.64622 9.48046 6.64077 9.48046 6.63533 9.48046C6.62989 9.48046 6.62445 9.48046 6.61902 9.48046C6.61358 9.48046 6.60815 9.48046 6.60273 9.48046C6.5973 9.48046 6.59188 9.48046 6.58646 9.48046C6.58105 9.48046 6.57563 9.48046 6.57022 9.48046C6.56482 9.48046 6.55941 9.48046 6.55401 9.48046C6.54861 9.48046 6.54322 9.48046 6.53783 9.48046C6.53244 9.48046 6.52705 9.48046 6.52167 9.48046C6.51629 9.48046 6.51091 9.48046 6.50554 9.48046C6.50016 9.48046 6.49479 9.48046 6.48943 9.48046C6.48407 9.48046 6.47871 9.48046 6.47335 9.48046C6.468 9.48046 6.46264 9.48046 6.4573 9.48046C6.45195 9.48046 6.44661 9.48046 6.44127 9.48046C6.43594 9.48046 6.4306 9.48046 6.42528 9.48046C6.41995 9.48046 6.41462 9.48046 6.40931 9.48046C6.40399 9.48046 6.39867 9.48046 6.39336 9.48046C6.38805 9.48046 6.38275 9.48046 6.37745 9.48046C6.37215 9.48046 6.36685 9.48046 6.36156 9.48046C6.35627 9.48046 6.35098 9.48046 6.3457 9.48046C6.34042 9.48046 6.33514 9.48046 6.32987 9.48046C6.3246 9.48046 6.31933 9.48046 6.31407 9.48046C6.30881 9.48046 6.30355 9.48046 6.29829 9.48046C6.29304 9.48046 6.28779 9.48046 6.28255 9.48046C6.27731 9.48046 6.27207 9.48046 6.26683 9.48046C6.2616 9.48046 6.25637 9.48046 6.25115 9.48046C6.24592 9.48046 6.2407 9.48046 6.23549 9.48046C6.23027 9.48046 6.22506 9.48046 6.21986 9.48046C6.21465 9.48046 6.20945 9.48046 6.20426 9.48046C6.19906 9.48046 6.19387 9.48046 6.18869 9.48046C6.1835 9.48046 6.17832 9.48046 6.17315 9.48046C6.16797 9.48046 6.1628 9.48046 6.15764 9.48046V10.7305C6.1628 10.7305 6.16797 10.7305 6.17315 10.7305C6.17832 10.7305 6.1835 10.7305 6.18869 10.7305C6.19387 10.7305 6.19906 10.7305 6.20426 10.7305C6.20945 10.7305 6.21465 10.7305 6.21986 10.7305C6.22506 10.7305 6.23027 10.7305 6.23549 10.7305C6.2407 10.7305 6.24592 10.7305 6.25115 10.7305C6.25637 10.7305 6.2616 10.7305 6.26683 10.7305C6.27207 10.7305 6.27731 10.7305 6.28255 10.7305C6.28779 10.7305 6.29304 10.7305 6.29829 10.7305C6.30355 10.7305 6.30881 10.7305 6.31407 10.7305C6.31933 10.7305 6.3246 10.7305 6.32987 10.7305C6.33514 10.7305 6.34042 10.7305 6.3457 10.7305C6.35098 10.7305 6.35627 10.7305 6.36156 10.7305C6.36685 10.7305 6.37215 10.7305 6.37745 10.7305C6.38275 10.7305 6.38805 10.7305 6.39336 10.7305C6.39867 10.7305 6.40399 10.7305 6.40931 10.7305C6.41462 10.7305 6.41995 10.7305 6.42528 10.7305C6.4306 10.7305 6.43594 10.7305 6.44127 10.7305C6.44661 10.7305 6.45195 10.7305 6.4573 10.7305C6.46264 10.7305 6.468 10.7305 6.47335 10.7305C6.47871 10.7305 6.48407 10.7305 6.48943 10.7305C6.49479 10.7305 6.50016 10.7305 6.50554 10.7305C6.51091 10.7305 6.51629 10.7305 6.52167 10.7305C6.52705 10.7305 6.53244 10.7305 6.53783 10.7305C6.54322 10.7305 6.54861 10.7305 6.55401 10.7305C6.55941 10.7305 6.56482 10.7305 6.57022 10.7305C6.57563 10.7305 6.58105 10.7305 6.58646 10.7305C6.59188 10.7305 6.5973 10.7305 6.60273 10.7305C6.60815 10.7305 6.61358 10.7305 6.61902 10.7305C6.62445 10.7305 6.62989 10.7305 6.63533 10.7305C6.64077 10.7305 6.64622 10.7305 6.65167 10.7305C6.65712 10.7305 6.66258 10.7305 6.66804 10.7305C6.6735 10.7305 6.67896 10.7305 6.68443 10.7305C6.6899 10.7305 6.69537 10.7305 6.70084 10.7305C6.70632 10.7305 6.7118 10.7305 6.71728 10.7305C6.72277 10.7305 6.72826 10.7305 6.73375 10.7305C6.73924 10.7305 6.74474 10.7305 6.75024 10.7305C6.75574 10.7305 6.76125 10.7305 6.76675 10.7305C6.77226 10.7305 6.77778 10.7305 6.78329 10.7305C6.78881 10.7305 6.79433 10.7305 6.79986 10.7305C6.80538 10.7305 6.81091 10.7305 6.81644 10.7305C6.82198 10.7305 6.82751 10.7305 6.83305 10.7305C6.83859 10.7305 6.84414 10.7305 6.84969 10.7305C6.85524 10.7305 6.86079 10.7305 6.86634 10.7305C6.8719 10.7305 6.87746 10.7305 6.88303 10.7305C6.88859 10.7305 6.89416 10.7305 6.89973 10.7305C6.9053 10.7305 6.91088 10.7305 6.91646 10.7305C6.92204 10.7305 6.92762 10.7305 6.93321 10.7305C6.93879 10.7305 6.94438 10.7305 6.94998 10.7305C6.95557 10.7305 6.96117 10.7305 6.96677 10.7305C6.97238 10.7305 6.97798 10.7305 6.98359 10.7305C6.9892 10.7305 6.99481 10.7305 7.00043 10.7305C7.00605 10.7305 7.01167 10.7305 7.01729 10.7305C7.02292 10.7305 7.02854 10.7305 7.03418 10.7305C7.03981 10.7305 7.04544 10.7305 7.05108 10.7305C7.05672 10.7305 7.06236 10.7305 7.06801 10.7305C7.07365 10.7305 7.0793 10.7305 7.08496 10.7305C7.09061 10.7305 7.09627 10.7305 7.10193 10.7305C7.10759 10.7305 7.11325 10.7305 7.11892 10.7305C7.12459 10.7305 7.13026 10.7305 7.13593 10.7305C7.14161 10.7305 7.14728 10.7305 7.15296 10.7305C7.15864 10.7305 7.16433 10.7305 7.17002 10.7305C7.17571 10.7305 7.1814 10.7305 7.18709 10.7305C7.19279 10.7305 7.19848 10.7305 7.20419 10.7305C7.20989 10.7305 7.21559 10.7305 7.2213 10.7305C7.22701 10.7305 7.23272 10.7305 7.23844 10.7305C7.24415 10.7305 7.24987 10.7305 7.25559 10.7305C7.26131 10.7305 7.26704 10.7305 7.27277 10.7305C7.27849 10.7305 7.28423 10.7305 7.28996 10.7305C7.2957 10.7305 7.30143 10.7305 7.30717 10.7305C7.31292 10.7305 7.31866 10.7305 7.32441 10.7305C7.33016 10.7305 7.33591 10.7305 7.34166 10.7305C7.34741 10.7305 7.35317 10.7305 7.35893 10.7305C7.36469 10.7305 7.37046 10.7305 7.37622 10.7305C7.38199 10.7305 7.38776 10.7305 7.39353 10.7305C7.3993 10.7305 7.40508 10.7305 7.41086 10.7305C7.41664 10.7305 7.42242 10.7305 7.42821 10.7305C7.43399 10.7305 7.43978 10.7305 7.44557 10.7305C7.45136 10.7305 7.45715 10.7305 7.46295 10.7305C7.46875 10.7305 7.47455 10.7305 7.48035 10.7305C7.48616 10.7305 7.49196 10.7305 7.49777 10.7305C7.50358 10.7305 7.50939 10.7305 7.51521 10.7305C7.52102 10.7305 7.52684 10.7305 7.53266 10.7305C7.53848 10.7305 7.5443 10.7305 7.55013 10.7305C7.55596 10.7305 7.56179 10.7305 7.56762 10.7305C7.57345 10.7305 7.57929 10.7305 7.58512 10.7305C7.59096 10.7305 7.5968 10.7305 7.60265 10.7305C7.60849 10.7305 7.61434 10.7305 7.62018 10.7305C7.62603 10.7305 7.63189 10.7305 7.63774 10.7305C7.64359 10.7305 7.64945 10.7305 7.65531 10.7305C7.66117 10.7305 7.66703 10.7305 7.6729 10.7305C7.67876 10.7305 7.68463 10.7305 7.6905 10.7305C7.69637 10.7305 7.70225 10.7305 7.70812 10.7305C7.714 10.7305 7.71988 10.7305 7.72576 10.7305C7.73164 10.7305 7.73752 10.7305 7.74341 10.7305C7.7493 10.7305 7.75519 10.7305 7.76108 10.7305C7.76697 10.7305 7.77286 10.7305 7.77876 10.7305C7.78466 10.7305 7.79056 10.7305 7.79646 10.7305C7.80236 10.7305 7.80826 10.7305 7.81417 10.7305C7.82008 10.7305 7.82599 10.7305 7.8319 10.7305C7.83781 10.7305 7.84372 10.7305 7.84964 10.7305C7.85556 10.7305 7.86148 10.7305 7.8674 10.7305C7.87332 10.7305 7.87924 10.7305 7.88517 10.7305C7.8911 10.7305 7.89702 10.7305 7.90295 10.7305C7.90889 10.7305 7.91482 10.7305 7.92075 10.7305C7.92669 10.7305 7.93263 10.7305 7.93857 10.7305C7.94451 10.7305 7.95045 10.7305 7.9564 10.7305C7.96234 10.7305 7.96829 10.7305 7.97424 10.7305C7.98019 10.7305 7.98614 10.7305 7.99209 10.7305C7.99805 10.7305 8.004 10.7305 8.00996 10.7305C8.01592 10.7305 8.02188 10.7305 8.02784 10.7305C8.0338 10.7305 8.03977 10.7305 8.04574 10.7305C8.0517 10.7305 8.05767 10.7305 8.06364 10.7305C8.06962 10.7305 8.07559 10.7305 8.08156 10.7305C8.08754 10.7305 8.09352 10.7305 8.0995 10.7305C8.10548 10.7305 8.11146 10.7305 8.11744 10.7305C8.12343 10.7305 8.12941 10.7305 8.1354 10.7305C8.14139 10.7305 8.14738 10.7305 8.15337 10.7305C8.15936 10.7305 8.16536 10.7305 8.17135 10.7305C8.17735 10.7305 8.18335 10.7305 8.18935 10.7305C8.19535 10.7305 8.20135 10.7305 8.20735 10.7305C8.21335 10.7305 8.21936 10.7305 8.22537 10.7305C8.23137 10.7305 8.23738 10.7305 8.2434 10.7305C8.24941 10.7305 8.25542 10.7305 8.26144 10.7305C8.26745 10.7305 8.27347 10.7305 8.27949 10.7305C8.2855 10.7305 8.29153 10.7305 8.29755 10.7305C8.30357 10.7305 8.30959 10.7305 8.31562 10.7305C8.32165 10.7305 8.32767 10.7305 8.3337 10.7305C8.33973 10.7305 8.34576 10.7305 8.3518 10.7305C8.35783 10.7305 8.36386 10.7305 8.3699 10.7305C8.37594 10.7305 8.38197 10.7305 8.38801 10.7305C8.39405 10.7305 8.40009 10.7305 8.40614 10.7305C8.41218 10.7305 8.41822 10.7305 8.42427 10.7305C8.43032 10.7305 8.43637 10.7305 8.44241 10.7305C8.44846 10.7305 8.45451 10.7305 8.46057 10.7305C8.46662 10.7305 8.47267 10.7305 8.47873 10.7305C8.48479 10.7305 8.49084 10.7305 8.4969 10.7305C8.50296 10.7305 8.50902 10.7305 8.51508 10.7305C8.52114 10.7305 8.52721 10.7305 8.53327 10.7305C8.53934 10.7305 8.5454 10.7305 8.55147 10.7305C8.55754 10.7305 8.56361 10.7305 8.56968 10.7305C8.57575 10.7305 8.58182 10.7305 8.58789 10.7305C8.59397 10.7305 8.60004 10.7305 8.60612 10.7305C8.61219 10.7305 8.61827 10.7305 8.62435 10.7305C8.63043 10.7305 8.63651 10.7305 8.64259 10.7305C8.64867 10.7305 8.65475 10.7305 8.66084 10.7305C8.66692 10.7305 8.67301 10.7305 8.67909 10.7305C8.68518 10.7305 8.69127 10.7305 8.69736 10.7305C8.70345 10.7305 8.70954 10.7305 8.71563 10.7305C8.72172 10.7305 8.72781 10.7305 8.73391 10.7305C8.74 10.7305 8.74609 10.7305 8.75219 10.7305C8.75829 10.7305 8.76438 10.7305 8.77048 10.7305C8.77658 10.7305 8.78268 10.7305 8.78878 10.7305C8.79488 10.7305 8.80098 10.7305 8.80709 10.7305C8.81319 10.7305 8.81929 10.7305 8.8254 10.7305C8.8315 10.7305 8.83761 10.7305 8.84372 10.7305C8.84982 10.7305 8.85593 10.7305 8.86204 10.7305C8.86815 10.7305 8.87426 10.7305 8.88037 10.7305C8.88648 10.7305 8.8926 10.7305 8.89871 10.7305C8.90482 10.7305 8.91094 10.7305 8.91705 10.7305C8.92317 10.7305 8.92928 10.7305 8.9354 10.7305C8.94152 10.7305 8.94763 10.7305 8.95375 10.7305C8.95987 10.7305 8.96599 10.7305 8.97211 10.7305C8.97823 10.7305 8.98435 10.7305 8.99047 10.7305C8.9966 10.7305 9.00272 10.7305 9.00884 10.7305C9.01497 10.7305 9.02109 10.7305 9.02722 10.7305C9.03334 10.7305 9.03947 10.7305 9.04559 10.7305C9.05172 10.7305 9.05785 10.7305 9.06398 10.7305C9.07011 10.7305 9.07623 10.7305 9.08236 10.7305C9.08849 10.7305 9.09462 10.7305 9.10076 10.7305C9.10689 10.7305 9.11302 10.7305 9.11915 10.7305C9.12528 10.7305 9.13142 10.7305 9.13755 10.7305C9.14368 10.7305 9.14982 10.7305 9.15595 10.7305C9.16209 10.7305 9.16822 10.7305 9.17436 10.7305C9.1805 10.7305 9.18663 10.7305 9.19277 10.7305C9.19891 10.7305 9.20504 10.7305 9.21118 10.7305C9.21732 10.7305 9.22346 10.7305 9.2296 10.7305C9.23574 10.7305 9.24188 10.7305 9.24802 10.7305C9.25416 10.7305 9.2603 10.7305 9.26644 10.7305C9.27258 10.7305 9.27872 10.7305 9.28486 10.7305C9.29101 10.7305 9.29715 10.7305 9.30329 10.7305C9.30944 10.7305 9.31558 10.7305 9.32172 10.7305C9.32787 10.7305 9.33401 10.7305 9.34015 10.7305C9.3463 10.7305 9.35244 10.7305 9.35859 10.7305C9.36473 10.7305 9.37088 10.7305 9.37702 10.7305C9.38317 10.7305 9.38932 10.7305 9.39546 10.7305C9.40161 10.7305 9.40775 10.7305 9.4139 10.7305C9.42005 10.7305 9.42619 10.7305 9.43234 10.7305C9.43849 10.7305 9.44464 10.7305 9.45078 10.7305C9.45693 10.7305 9.46308 10.7305 9.46923 10.7305C9.47537 10.7305 9.48152 10.7305 9.48767 10.7305C9.49382 10.7305 9.49997 10.7305 9.50612 10.7305C9.51226 10.7305 9.51841 10.7305 9.52456 10.7305C9.53071 10.7305 9.53686 10.7305 9.54301 10.7305C9.54916 10.7305 9.55531 10.7305 9.56145 10.7305C9.5676 10.7305 9.57375 10.7305 9.5799 10.7305C9.58605 10.7305 9.5922 10.7305 9.59835 10.7305C9.6045 10.7305 9.61065 10.7305 9.6168 10.7305C9.62294 10.7305 9.62909 10.7305 9.63524 10.7305C9.64139 10.7305 9.64754 10.7305 9.65369 10.7305C9.65984 10.7305 9.66599 10.7305 9.67213 10.7305C9.67828 10.7305 9.68443 10.7305 9.69058 10.7305C9.69673 10.7305 9.70288 10.7305 9.70902 10.7305C9.71517 10.7305 9.72132 10.7305 9.72747 10.7305C9.73361 10.7305 9.73976 10.7305 9.74591 10.7305C9.75206 10.7305 9.7582 10.7305 9.76435 10.7305C9.7705 10.7305 9.77664 10.7305 9.78279 10.7305C9.78893 10.7305 9.79508 10.7305 9.80123 10.7305C9.80737 10.7305 9.81352 10.7305 9.81966 10.7305C9.82581 10.7305 9.83195 10.7305 9.8381 10.7305C9.84424 10.7305 9.85038 10.7305 9.85653 10.7305C9.86267 10.7305 9.86882 10.7305 9.87496 10.7305C9.8811 10.7305 9.88724 10.7305 9.89339 10.7305C9.89953 10.7305 9.90567 10.7305 9.91181 10.7305C9.91795 10.7305 9.92409 10.7305 9.93023 10.7305C9.93637 10.7305 9.94251 10.7305 9.94865 10.7305C9.95479 10.7305 9.96093 10.7305 9.96707 10.7305C9.97321 10.7305 9.97934 10.7305 9.98548 10.7305C9.99162 10.7305 9.99776 10.7305 10.0039 10.7305C10.01 10.7305 10.0162 10.7305 10.0223 10.7305C10.0284 10.7305 10.0346 10.7305 10.0407 10.7305C10.0468 10.7305 10.053 10.7305 10.0591 10.7305C10.0652 10.7305 10.0714 10.7305 10.0775 10.7305C10.0836 10.7305 10.0898 10.7305 10.0959 10.7305C10.102 10.7305 10.1081 10.7305 10.1143 10.7305C10.1204 10.7305 10.1265 10.7305 10.1327 10.7305C10.1388 10.7305 10.1449 10.7305 10.151 10.7305C10.1572 10.7305 10.1633 10.7305 10.1694 10.7305C10.1755 10.7305 10.1817 10.7305 10.1878 10.7305C10.1939 10.7305 10.2 10.7305 10.2061 10.7305C10.2123 10.7305 10.2184 10.7305 10.2245 10.7305C10.2306 10.7305 10.2367 10.7305 10.2429 10.7305C10.249 10.7305 10.2551 10.7305 10.2612 10.7305C10.2673 10.7305 10.2734 10.7305 10.2795 10.7305C10.2857 10.7305 10.2918 10.7305 10.2979 10.7305C10.304 10.7305 10.3101 10.7305 10.3162 10.7305C10.3223 10.7305 10.3284 10.7305 10.3345 10.7305C10.3406 10.7305 10.3468 10.7305 10.3529 10.7305C10.359 10.7305 10.3651 10.7305 10.3712 10.7305C10.3773 10.7305 10.3834 10.7305 10.3895 10.7305C10.3956 10.7305 10.4017 10.7305 10.4078 10.7305C10.4139 10.7305 10.42 10.7305 10.4261 10.7305C10.4322 10.7305 10.4383 10.7305 10.4443 10.7305C10.4504 10.7305 10.4565 10.7305 10.4626 10.7305C10.4687 10.7305 10.4748 10.7305 10.4809 10.7305C10.487 10.7305 10.4931 10.7305 10.4992 10.7305C10.5052 10.7305 10.5113 10.7305 10.5174 10.7305C10.5235 10.7305 10.5296 10.7305 10.5357 10.7305C10.5417 10.7305 10.5478 10.7305 10.5539 10.7305C10.56 10.7305 10.5661 10.7305 10.5721 10.7305C10.5782 10.7305 10.5843 10.7305 10.5904 10.7305C10.5964 10.7305 10.6025 10.7305 10.6086 10.7305C10.6147 10.7305 10.6207 10.7305 10.6268 10.7305C10.6329 10.7305 10.6389 10.7305 10.645 10.7305C10.6511 10.7305 10.6571 10.7305 10.6632 10.7305C10.6692 10.7305 10.6753 10.7305 10.6814 10.7305C10.6874 10.7305 10.6935 10.7305 10.6995 10.7305C10.7056 10.7305 10.7116 10.7305 10.7177 10.7305C10.7237 10.7305 10.7298 10.7305 10.7358 10.7305C10.7419 10.7305 10.7479 10.7305 10.754 10.7305C10.76 10.7305 10.7661 10.7305 10.7721 10.7305C10.7782 10.7305 10.7842 10.7305 10.7902 10.7305C10.7963 10.7305 10.8023 10.7305 10.8084 10.7305C10.8144 10.7305 10.8204 10.7305 10.8265 10.7305C10.8325 10.7305 10.8385 10.7305 10.8446 10.7305C10.8506 10.7305 10.8566 10.7305 10.8626 10.7305C10.8687 10.7305 10.8747 10.7305 10.8807 10.7305C10.8867 10.7305 10.8928 10.7305 10.8988 10.7305C10.9048 10.7305 10.9108 10.7305 10.9168 10.7305C10.9228 10.7305 10.9289 10.7305 10.9349 10.7305C10.9409 10.7305 10.9469 10.7305 10.9529 10.7305C10.9589 10.7305 10.9649 10.7305 10.9709 10.7305C10.9769 10.7305 10.9829 10.7305 10.9889 10.7305C10.9949 10.7305 11.0009 10.7305 11.0069 10.7305C11.0129 10.7305 11.0189 10.7305 11.0249 10.7305C11.0309 10.7305 11.0369 10.7305 11.0429 10.7305C11.0489 10.7305 11.0548 10.7305 11.0608 10.7305C11.0668 10.7305 11.0728 10.7305 11.0788 10.7305C11.0847 10.7305 11.0907 10.7305 11.0967 10.7305C11.1027 10.7305 11.1087 10.7305 11.1146 10.7305C11.1206 10.7305 11.1266 10.7305 11.1325 10.7305C11.1385 10.7305 11.1445 10.7305 11.1504 10.7305C11.1564 10.7305 11.1624 10.7305 11.1683 10.7305C11.1743 10.7305 11.1802 10.7305 11.1862 10.7305C11.1921 10.7305 11.1981 10.7305 11.204 10.7305C11.21 10.7305 11.2159 10.7305 11.2219 10.7305C11.2278 10.7305 11.2338 10.7305 11.2397 10.7305C11.2456 10.7305 11.2516 10.7305 11.2575 10.7305C11.2635 10.7305 11.2694 10.7305 11.2753 10.7305C11.2812 10.7305 11.2872 10.7305 11.2931 10.7305C11.299 10.7305 11.305 10.7305 11.3109 10.7305C11.3168 10.7305 11.3227 10.7305 11.3286 10.7305C11.3345 10.7305 11.3405 10.7305 11.3464 10.7305C11.3523 10.7305 11.3582 10.7305 11.3641 10.7305C11.37 10.7305 11.3759 10.7305 11.3818 10.7305C11.3877 10.7305 11.3936 10.7305 11.3995 10.7305C11.4054 10.7305 11.4113 10.7305 11.4172 10.7305C11.4231 10.7305 11.429 10.7305 11.4349 10.7305C11.4408 10.7305 11.4466 10.7305 11.4525 10.7305C11.4584 10.7305 11.4643 10.7305 11.4702 10.7305C11.476 10.7305 11.4819 10.7305 11.4878 10.7305C11.4936 10.7305 11.4995 10.7305 11.5054 10.7305C11.5112 10.7305 11.5171 10.7305 11.523 10.7305C11.5288 10.7305 11.5347 10.7305 11.5405 10.7305C11.5464 10.7305 11.5522 10.7305 11.5581 10.7305C11.5639 10.7305 11.5698 10.7305 11.5756 10.7305C11.5815 10.7305 11.5873 10.7305 11.5932 10.7305C11.599 10.7305 11.6048 10.7305 11.6107 10.7305C11.6165 10.7305 11.6223 10.7305 11.6282 10.7305C11.634 10.7305 11.6398 10.7305 11.6456 10.7305C11.6514 10.7305 11.6573 10.7305 11.6631 10.7305C11.6689 10.7305 11.6747 10.7305 11.6805 10.7305C11.6863 10.7305 11.6921 10.7305 11.6979 10.7305C11.7037 10.7305 11.7095 10.7305 11.7153 10.7305C11.7211 10.7305 11.7269 10.7305 11.7327 10.7305C11.7385 10.7305 11.7443 10.7305 11.7501 10.7305C11.7559 10.7305 11.7616 10.7305 11.7674 10.7305C11.7732 10.7305 11.779 10.7305 11.7848 10.7305C11.7905 10.7305 11.7963 10.7305 11.8021 10.7305C11.8078 10.7305 11.8136 10.7305 11.8194 10.7305C11.8251 10.7305 11.8309 10.7305 11.8366 10.7305C11.8424 10.7305 11.8481 10.7305 11.8539 10.7305C11.8596 10.7305 11.8654 10.7305 11.8711 10.7305C11.8769 10.7305 11.8826 10.7305 11.8883 10.7305C11.8941 10.7305 11.8998 10.7305 11.9055 10.7305C11.9113 10.7305 11.917 10.7305 11.9227 10.7305C11.9284 10.7305 11.9341 10.7305 11.9399 10.7305C11.9456 10.7305 11.9513 10.7305 11.957 10.7305C11.9627 10.7305 11.9684 10.7305 11.9741 10.7305C11.9798 10.7305 11.9855 10.7305 11.9912 10.7305C11.9969 10.7305 12.0026 10.7305 12.0083 10.7305C12.014 10.7305 12.0197 10.7305 12.0253 10.7305C12.031 10.7305 12.0367 10.7305 12.0424 10.7305C12.048 10.7305 12.0537 10.7305 12.0594 10.7305C12.065 10.7305 12.0707 10.7305 12.0764 10.7305C12.082 10.7305 12.0877 10.7305 12.0933 10.7305C12.099 10.7305 12.1046 10.7305 12.1103 10.7305C12.1159 10.7305 12.1216 10.7305 12.1272 10.7305C12.1329 10.7305 12.1385 10.7305 12.1441 10.7305C12.1498 10.7305 12.1554 10.7305 12.161 10.7305C12.1666 10.7305 12.1723 10.7305 12.1779 10.7305C12.1835 10.7305 12.1891 10.7305 12.1947 10.7305C12.2003 10.7305 12.2059 10.7305 12.2115 10.7305C12.2171 10.7305 12.2227 10.7305 12.2283 10.7305C12.2339 10.7305 12.2395 10.7305 12.2451 10.7305C12.2507 10.7305 12.2563 10.7305 12.2619 10.7305C12.2674 10.7305 12.273 10.7305 12.2786 10.7305C12.2842 10.7305 12.2897 10.7305 12.2953 10.7305C12.3008 10.7305 12.3064 10.7305 12.312 10.7305C12.3175 10.7305 12.3231 10.7305 12.3286 10.7305C12.3342 10.7305 12.3397 10.7305 12.3453 10.7305C12.3508 10.7305 12.3563 10.7305 12.3619 10.7305C12.3674 10.7305 12.3729 10.7305 12.3785 10.7305C12.384 10.7305 12.3895 10.7305 12.395 10.7305C12.4005 10.7305 12.4061 10.7305 12.4116 10.7305C12.4171 10.7305 12.4226 10.7305 12.4281 10.7305C12.4336 10.7305 12.4391 10.7305 12.4446 10.7305C12.4501 10.7305 12.4555 10.7305 12.461 10.7305C12.4665 10.7305 12.472 10.7305 12.4775 10.7305C12.4829 10.7305 12.4884 10.7305 12.4939 10.7305C12.4994 10.7305 12.5048 10.7305 12.5103 10.7305C12.5157 10.7305 12.5212 10.7305 12.5266 10.7305C12.5321 10.7305 12.5375 10.7305 12.543 10.7305C12.5484 10.7305 12.5539 10.7305 12.5593 10.7305C12.5647 10.7305 12.5702 10.7305 12.5756 10.7305C12.581 10.7305 12.5864 10.7305 12.5919 10.7305C12.5973 10.7305 12.6027 10.7305 12.6081 10.7305C12.6135 10.7305 12.6189 10.7305 12.6243 10.7305C12.6297 10.7305 12.6351 10.7305 12.6405 10.7305C12.6459 10.7305 12.6513 10.7305 12.6567 10.7305C12.662 10.7305 12.6674 10.7305 12.6728 10.7305C12.6782 10.7305 12.6835 10.7305 12.6889 10.7305C12.6943 10.7305 12.6996 10.7305 12.705 10.7305C12.7103 10.7305 12.7157 10.7305 12.721 10.7305C12.7264 10.7305 12.7317 10.7305 12.7371 10.7305C12.7424 10.7305 12.7477 10.7305 12.7531 10.7305C12.7584 10.7305 12.7637 10.7305 12.769 10.7305C12.7743 10.7305 12.7797 10.7305 12.785 10.7305C12.7903 10.7305 12.7956 10.7305 12.8009 10.7305C12.8062 10.7305 12.8115 10.7305 12.8168 10.7305C12.8221 10.7305 12.8274 10.7305 12.8326 10.7305C12.8379 10.7305 12.8432 10.7305 12.8485 10.7305C12.8537 10.7305 12.859 10.7305 12.8643 10.7305C12.8695 10.7305 12.8748 10.7305 12.88 10.7305C12.8853 10.7305 12.8905 10.7305 12.8958 10.7305C12.901 10.7305 12.9063 10.7305 12.9115 10.7305C12.9167 10.7305 12.922 10.7305 12.9272 10.7305C12.9324 10.7305 12.9376 10.7305 12.9429 10.7305C12.9481 10.7305 12.9533 10.7305 12.9585 10.7305C12.9637 10.7305 12.9689 10.7305 12.9741 10.7305C12.9793 10.7305 12.9845 10.7305 12.9897 10.7305C12.9948 10.7305 13 10.7305 13.0052 10.7305C13.0104 10.7305 13.0155 10.7305 13.0207 10.7305C13.0259 10.7305 13.031 10.7305 13.0362 10.7305C13.0413 10.7305 13.0465 10.7305 13.0516 10.7305C13.0568 10.7305 13.0619 10.7305 13.0671 10.7305C13.0722 10.7305 13.0773 10.7305 13.0825 10.7305C13.0876 10.7305 13.0927 10.7305 13.0978 10.7305C13.1029 10.7305 13.108 10.7305 13.1131 10.7305C13.1182 10.7305 13.1233 10.7305 13.1284 10.7305C13.1335 10.7305 13.1386 10.7305 13.1437 10.7305C13.1488 10.7305 13.1539 10.7305 13.1589 10.7305C13.164 10.7305 13.1691 10.7305 13.1741 10.7305C13.1792 10.7305 13.1843 10.7305 13.1893 10.7305C13.1944 10.7305 13.1994 10.7305 13.2045 10.7305C13.2095 10.7305 13.2145 10.7305 13.2196 10.7305C13.2246 10.7305 13.2296 10.7305 13.2346 10.7305C13.2397 10.7305 13.2447 10.7305 13.2497 10.7305C13.2547 10.7305 13.2597 10.7305 13.2647 10.7305C13.2697 10.7305 13.2747 10.7305 13.2797 10.7305C13.2847 10.7305 13.2897 10.7305 13.2946 10.7305C13.2996 10.7305 13.3046 10.7305 13.3095 10.7305C13.3145 10.7305 13.3195 10.7305 13.3244 10.7305C13.3294 10.7305 13.3343 10.7305 13.3393 10.7305C13.3442 10.7305 13.3492 10.7305 13.3541 10.7305C13.359 10.7305 13.364 10.7305 13.3689 10.7305C13.3738 10.7305 13.3787 10.7305 13.3836 10.7305C13.3885 10.7305 13.3934 10.7305 13.3983 10.7305C13.4032 10.7305 13.4081 10.7305 13.413 10.7305C13.4179 10.7305 13.4228 10.7305 13.4277 10.7305C13.4325 10.7305 13.4374 10.7305 13.4423 10.7305C13.4471 10.7305 13.452 10.7305 13.4569 10.7305C13.4617 10.7305 13.4666 10.7305 13.4714 10.7305C13.4762 10.7305 13.4811 10.7305 13.4859 10.7305C13.4907 10.7305 13.4956 10.7305 13.5004 10.7305C13.5052 10.7305 13.51 10.7305 13.5148 10.7305C13.5196 10.7305 13.5244 10.7305 13.5292 10.7305C13.534 10.7305 13.5388 10.7305 13.5436 10.7305C13.5484 10.7305 13.5532 10.7305 13.5579 10.7305C13.5627 10.7305 13.5675 10.7305 13.5722 10.7305C13.577 10.7305 13.5817 10.7305 13.5865 10.7305C13.5912 10.7305 13.596 10.7305 13.6007 10.7305C13.6055 10.7305 13.6102 10.7305 13.6149 10.7305C13.6196 10.7305 13.6244 10.7305 13.6291 10.7305C13.6338 10.7305 13.6385 10.7305 13.6432 10.7305C13.6479 10.7305 13.6526 10.7305 13.6573 10.7305C13.662 10.7305 13.6666 10.7305 13.6713 10.7305C13.676 10.7305 13.6807 10.7305 13.6853 10.7305C13.69 10.7305 13.6946 10.7305 13.6993 10.7305C13.7039 10.7305 13.7086 10.7305 13.7132 10.7305C13.7179 10.7305 13.7225 10.7305 13.7271 10.7305C13.7318 10.7305 13.7364 10.7305 13.741 10.7305C13.7456 10.7305 13.7502 10.7305 13.7548 10.7305C13.7594 10.7305 13.764 10.7305 13.7686 10.7305C13.7732 10.7305 13.7778 10.7305 13.7823 10.7305C13.7869 10.7305 13.7915 10.7305 13.796 10.7305C13.8006 10.7305 13.8052 10.7305 13.8097 10.7305C13.8143 10.7305 13.8188 10.7305 13.8234 10.7305C13.8279 10.7305 13.8324 10.7305 13.8369 10.7305C13.8415 10.7305 13.846 10.7305 13.8505 10.7305C13.855 10.7305 13.8595 10.7305 13.864 10.7305C13.8685 10.7305 13.873 10.7305 13.8775 10.7305C13.882 10.7305 13.8865 10.7305 13.8909 10.7305C13.8954 10.7305 13.8999 10.7305 13.9043 10.7305C13.9088 10.7305 13.9132 10.7305 13.9177 10.7305C13.9221 10.7305 13.9266 10.7305 13.931 10.7305C13.9354 10.7305 13.9399 10.7305 13.9443 10.7305C13.9487 10.7305 13.9531 10.7305 13.9575 10.7305C13.9619 10.7305 13.9663 10.7305 13.9707 10.7305C13.9751 10.7305 13.9795 10.7305 13.9839 10.7305C13.9883 10.7305 13.9927 10.7305 13.997 10.7305C14.0014 10.7305 14.0057 10.7305 14.0101 10.7305C14.0145 10.7305 14.0188 10.7305 14.0231 10.7305C14.0275 10.7305 14.0318 10.7305 14.0361 10.7305C14.0405 10.7305 14.0448 10.7305 14.0491 10.7305C14.0534 10.7305 14.0577 10.7305 14.062 10.7305C14.0663 10.7305 14.0706 10.7305 14.0749 10.7305C14.0792 10.7305 14.0835 10.7305 14.0877 10.7305C14.092 10.7305 14.0963 10.7305 14.1005 10.7305C14.1048 10.7305 14.109 10.7305 14.1133 10.7305C14.1175 10.7305 14.1218 10.7305 14.126 10.7305C14.1302 10.7305 14.1344 10.7305 14.1386 10.7305C14.1429 10.7305 14.1471 10.7305 14.1513 10.7305C14.1555 10.7305 14.1597 10.7305 14.1639 10.7305C14.168 10.7305 14.1722 10.7305 14.1764 10.7305C14.1806 10.7305 14.1847 10.7305 14.1889 10.7305C14.1931 10.7305 14.1972 10.7305 14.2014 10.7305C14.2055 10.7305 14.2096 10.7305 14.2138 10.7305C14.2179 10.7305 14.222 10.7305 14.2261 10.7305C14.2303 10.7305 14.2344 10.7305 14.2385 10.7305C14.2426 10.7305 14.2467 10.7305 14.2507 10.7305C14.2548 10.7305 14.2589 10.7305 14.263 10.7305C14.2671 10.7305 14.2711 10.7305 14.2752 10.7305C14.2792 10.7305 14.2833 10.7305 14.2873 10.7305C14.2914 10.7305 14.2954 10.7305 14.2994 10.7305C14.3035 10.7305 14.3075 10.7305 14.3115 10.7305C14.3155 10.7305 14.3195 10.7305 14.3235 10.7305C14.3275 10.7305 14.3315 10.7305 14.3355 10.7305C14.3395 10.7305 14.3435 10.7305 14.3474 10.7305C14.3514 10.7305 14.3554 10.7305 14.3593 10.7305C14.3633 10.7305 14.3672 10.7305 14.3712 10.7305C14.3751 10.7305 14.379 10.7305 14.383 10.7305C14.3869 10.7305 14.3908 10.7305 14.3947 10.7305C14.3986 10.7305 14.4025 10.7305 14.4064 10.7305C14.4103 10.7305 14.4142 10.7305 14.4181 10.7305C14.422 10.7305 14.4258 10.7305 14.4297 10.7305C14.4336 10.7305 14.4374 10.7305 14.4413 10.7305C14.4451 10.7305 14.449 10.7305 14.4528 10.7305C14.4566 10.7305 14.4604 10.7305 14.4643 10.7305C14.4681 10.7305 14.4719 10.7305 14.4757 10.7305C14.4795 10.7305 14.4833 10.7305 14.4871 10.7305C14.4909 10.7305 14.4946 10.7305 14.4984 10.7305C14.5022 10.7305 14.506 10.7305 14.5097 10.7305C14.5135 10.7305 14.5172 10.7305 14.521 10.7305C14.5247 10.7305 14.5284 10.7305 14.5322 10.7305C14.5359 10.7305 14.5396 10.7305 14.5433 10.7305C14.547 10.7305 14.5507 10.7305 14.5544 10.7305C14.5581 10.7305 14.5618 10.7305 14.5655 10.7305C14.5691 10.7305 14.5728 10.7305 14.5765 10.7305C14.5801 10.7305 14.5838 10.7305 14.5874 10.7305C14.5911 10.7305 14.5947 10.7305 14.5983 10.7305C14.602 10.7305 14.6056 10.7305 14.6092 10.7305V9.48046ZM15.4929 8.91404C15.3177 9.29347 15.2868 9.33977 15.2597 9.36756L16.1536 10.2412C16.3675 10.0224 16.4921 9.73194 16.6278 9.43786L15.4929 8.91404ZM14.6092 10.7305C14.9322 10.7305 15.2474 10.7391 15.5357 10.6366L15.1171 9.4588C15.0804 9.47183 15.0258 9.48046 14.6092 9.48046V10.7305ZM15.2597 9.36756C15.2197 9.40844 15.1709 9.43965 15.1171 9.4588L15.5357 10.6366C15.7691 10.5536 15.9805 10.4184 16.1536 10.2412L15.2597 9.36756ZM15.4991 5.59888C15.9271 5.59888 16.2052 5.5995 16.4099 5.61819C16.6145 5.63687 16.6536 5.66783 16.6489 5.66458L17.3557 4.63359C17.0953 4.45513 16.7987 4.39849 16.5236 4.37337C16.2486 4.34826 15.9028 4.34888 15.4991 4.34888V5.59888ZM17.5193 7.50628C17.6885 7.13969 17.8339 6.82606 17.9264 6.56583C18.0189 6.30546 18.0918 6.01242 18.0388 5.70127L16.8065 5.91097C16.8056 5.90529 16.8173 5.95378 16.7485 6.14737C16.6797 6.34111 16.5637 6.59387 16.3843 6.98246L17.5193 7.50628ZM16.6489 5.66458C16.7326 5.72198 16.7895 5.81089 16.8065 5.91097L18.0388 5.70127C17.965 5.26758 17.7185 4.88234 17.3557 4.63359L16.6489 5.66458Z" fill="black"/>
</svg>
