<svg width="147" height="20" viewBox="0 0 147 20" fill="none" xmlns="http://www.w3.org/2000/svg">
<path d="M5.51077 4.78017C6.12248 4.77503 6.731 4.86865 7.31287 5.05742C7.90774 5.253 8.46055 5.55866 8.9425 5.95847C9.91871 5.15763 11.1472 4.72872 12.4097 4.74793C13.1235 4.74798 13.8302 4.88932 14.489 5.1638C15.1448 5.43412 15.7457 5.82197 16.2621 6.30825C16.7746 6.78915 17.1871 7.36651 17.4759 8.00719C17.778 8.67105 17.932 9.39267 17.9273 10.122V17.8849C17.9195 18.3857 17.6913 18.8575 17.3034 19.1744C16.7233 19.7503 15.8549 19.923 15.0986 19.6129C14.3423 19.3027 13.8451 18.5701 13.8362 17.7527V10.2284C13.8491 9.84883 13.6975 9.48219 13.4204 9.22256C13.1453 8.94755 12.7695 8.79725 12.3807 8.80669C12.0279 8.80686 11.6861 8.92934 11.4135 9.15325C11.1053 9.40753 10.9375 9.79409 10.9622 10.1929V17.7495C10.9741 18.2852 10.7599 18.8012 10.3723 19.1712C9.99757 19.5519 9.48472 19.7647 8.95056 19.7612C8.43513 19.7576 7.94004 19.5595 7.56433 19.2067C7.16914 18.8837 6.94009 18.4001 6.94052 17.8897V10.2284C6.9356 9.84513 6.77222 9.48102 6.48919 9.22256C5.93815 8.6899 5.06405 8.6899 4.51301 9.22256C4.23607 9.48538 4.0739 9.84678 4.06167 10.2284V17.9236C4.02643 18.4174 3.80317 18.8789 3.43787 19.2131C3.06862 19.576 2.5693 19.7757 2.05164 19.7676C1.77916 19.7741 1.50805 19.727 1.25375 19.629C1.00856 19.5355 0.784447 19.3941 0.594481 19.2131C0.401264 19.0129 0.248074 18.7777 0.143149 18.52C0.0320576 18.282 -0.015692 18.0194 0.00452593 17.7576V10.1188C-0.00239541 9.41527 0.139319 8.71823 0.420396 8.07328C0.699754 7.43786 1.09806 6.86173 1.59386 6.37595C2.09629 5.89132 2.68369 5.50337 3.32665 5.2315C4.00676 4.94697 4.73815 4.80541 5.47531 4.81563" fill="#757575"/>
<path d="M27.802 4.8155C28.7114 4.91412 29.5938 5.1849 30.402 5.61339C31.2028 6.03369 31.9197 6.59754 32.5168 7.27687C33.1065 7.9542 33.5755 8.7279 33.903 9.56415C34.2477 10.4242 34.4244 11.3424 34.4236 12.2689V17.7494C34.4314 18.2912 34.2038 18.8098 33.7998 19.1711C33.3644 19.6097 32.7489 19.8193 32.1363 19.7377C31.5237 19.6561 30.9846 19.2925 30.6792 18.7552L30.402 18.8938L30.1586 19.0324C29.6685 19.2553 29.1578 19.4297 28.6337 19.5531C28.0758 19.6751 27.5058 19.7335 26.9348 19.7272C25.4641 19.746 24.0236 19.3103 22.8099 18.4796C21.6263 17.6771 20.6897 16.5608 20.1052 15.2558C19.8996 14.7881 19.7377 14.3025 19.6216 13.8051C19.3957 12.7891 19.3957 11.7359 19.6216 10.7199C19.7377 10.2224 19.8996 9.7368 20.1052 9.26918C20.6776 7.94714 21.6161 6.81629 22.8099 6.00992C24.0255 5.18326 25.4648 4.74794 26.9348 4.76231H27.802V4.8155ZM26.9348 15.7523C27.3996 15.7514 27.8595 15.6571 28.2871 15.475C28.702 15.309 29.0791 15.0612 29.3961 14.7464C29.7062 14.4255 29.9533 14.0494 30.1247 13.6374C30.3143 13.2002 30.4088 12.7277 30.402 12.2512C30.4032 11.7976 30.3087 11.3488 30.1247 10.9343C29.7607 10.0958 29.0918 9.4269 28.2533 9.06285C27.8387 8.87882 27.39 8.78435 26.9364 8.78559C26.4917 8.78509 26.052 8.87962 25.6469 9.06285C25.2334 9.24657 24.8575 9.50504 24.5379 9.82528C24.2164 10.1438 23.9577 10.52 23.7754 10.9343C23.5914 11.3488 23.4969 11.7976 23.4982 12.2512C23.4896 12.7169 23.5843 13.1788 23.7754 13.6036C23.9584 14.0174 24.217 14.3935 24.5379 14.7126C24.8594 15.0304 25.2349 15.2886 25.6469 15.475C26.0513 15.6603 26.4915 15.7549 26.9364 15.7523" fill="#757575"/>
<path d="M38.166 0.000903562C38.7111 -0.0157518 39.2379 0.198487 39.6167 0.590858C40.0121 0.990018 40.2468 1.52076 40.2759 2.08186V4.43524H46.2045C46.7564 4.41897 47.2874 4.64727 47.6552 5.05904C48.0174 5.45479 48.2156 5.97336 48.2097 6.50975C48.2006 7.04807 47.9759 7.56021 47.5859 7.93144C47.2303 8.32253 46.7282 8.54844 46.1997 8.55525H40.2808V12.0901C40.2816 12.555 40.3759 13.0149 40.558 13.4425C40.7284 13.8656 40.9754 14.2536 41.2866 14.587C41.5998 14.9147 41.9774 15.1743 42.3956 15.3494C42.8331 15.538 43.3054 15.6324 43.7818 15.6266C44.2527 15.642 44.7224 15.5715 45.1681 15.4187C45.547 15.2742 45.8902 15.0493 46.1739 14.7594C46.5622 14.3994 47.0665 14.1901 47.5956 14.1695C48.1376 14.1696 48.6581 14.3812 49.0463 14.7594C49.2391 14.9331 49.393 15.1458 49.4976 15.3832C49.6 15.6133 49.659 15.8603 49.6717 16.1118C49.6837 16.3702 49.6482 16.6287 49.5669 16.8743C49.4837 17.1244 49.341 17.3506 49.1511 17.5335C48.4588 18.2079 47.6478 18.7484 46.759 19.1277C45.8817 19.4993 44.9377 19.688 43.9849 19.6823C42.9542 19.6834 41.932 19.4955 40.9691 19.1277C40.0439 18.7745 39.1964 18.2446 38.4739 17.5674C37.7525 16.8846 37.1763 16.0634 36.7797 15.1527C36.3501 14.1682 36.1257 13.1063 36.1205 12.0321V1.93518C36.1097 1.40288 36.3388 0.893937 36.7443 0.548949C37.1353 0.198733 37.641 0.00378395 38.166 0.000903562Z" fill="#757575"/>
<path d="M52.76 19.7564C52.2418 19.7676 51.7413 19.5674 51.3738 19.2019C50.9932 18.8242 50.7702 18.316 50.75 17.7802V12.095C50.7614 11.1259 50.9738 10.1698 51.3738 9.28708C51.758 8.43198 52.2987 7.65623 52.968 6.9998C53.6494 6.33742 54.4487 5.80823 55.3246 5.43948C56.2258 5.06144 57.1881 4.85008 58.1647 4.81567C58.6998 4.80718 59.2145 5.02077 59.5864 5.40563C59.9588 5.7889 60.1804 6.29375 60.2102 6.82732C60.2266 7.3639 60.0117 7.88167 59.6203 8.24902C59.23 8.62407 58.7108 8.83521 58.1696 8.83897C57.258 8.83154 56.3825 9.19454 55.7437 9.8448C55.433 10.1652 55.1858 10.5414 55.0151 10.9538C54.8255 11.391 54.731 11.8635 54.7378 12.34V17.922C54.7108 18.4188 54.5006 18.888 54.1479 19.2389C53.7619 19.5943 53.2504 19.7816 52.7262 19.7596" fill="#757575"/>
<path d="M63.37 0.136355C63.8952 0.125842 64.3997 0.340571 64.7562 0.72631C65.124 1.10685 65.3237 1.61898 65.3107 2.148C65.3237 2.67703 65.124 3.18916 64.7562 3.5697C64.3997 3.95544 63.8952 4.17017 63.37 4.15965C62.8342 4.16216 62.3168 3.9644 61.9193 3.60516C61.5155 3.20343 61.3011 2.64922 61.3293 2.0803C61.3412 1.56262 61.5671 1.073 61.9532 0.727922C62.3286 0.351014 62.8381 0.138287 63.37 0.136355ZM63.37 4.85116C63.8837 4.84253 64.3759 5.05717 64.7192 5.4395C65.0742 5.83101 65.2826 6.33337 65.3091 6.8612V17.8221C65.3263 18.3349 65.139 18.8336 64.7885 19.2083C64.4129 19.592 63.9035 19.8156 63.3668 19.8321C62.8713 19.8463 62.3886 19.6737 62.0144 19.3486C61.6217 18.9868 61.3751 18.4936 61.3213 17.9623V6.75642C61.3558 6.24687 61.5933 5.77248 61.9806 5.4395C62.3615 5.09491 62.8533 4.8982 63.3668 4.88501" fill="#757575"/>
<path d="M80.218 4.78175C80.7414 4.77981 81.2427 4.99313 81.6042 5.37172C81.9701 5.74191 82.181 6.23765 82.1942 6.75795C82.2027 7.29306 81.9891 7.80777 81.6042 8.17965L81.2915 8.49235L80.9788 8.80506L77.5471 12.2368L74.0799 15.6685H80.2164C81.3322 15.7062 82.2117 16.6316 82.1925 17.7479C82.1744 18.8317 81.3002 19.706 80.2164 19.7241H69.1926C68.6691 19.726 68.1679 19.5127 67.8064 19.1341C67.4167 18.7803 67.2012 18.2739 67.2164 17.7479C67.1662 17.2233 67.3728 16.7069 67.7709 16.3616L75.2936 8.80506H69.1926C68.6692 8.77613 68.1751 8.55382 67.8064 8.18126C67.3891 7.83232 67.1688 7.30141 67.2164 6.75956C67.2012 6.23351 67.4167 5.7271 67.8064 5.37333C68.1629 4.98759 68.6674 4.77286 69.1926 4.78338L80.218 4.78175Z" fill="#757575"/>
<path d="M92.1076 4.8155C93.0171 4.91416 93.8994 5.18494 94.7076 5.61339C95.5085 6.03369 96.2253 6.59754 96.8224 7.27687C97.4122 7.95418 97.8811 8.72788 98.2087 9.56415C98.5536 10.4241 98.7303 11.3423 98.7293 12.2689V17.7494C98.7324 18.2903 98.5057 18.8071 98.1055 19.1711C97.6701 19.6097 97.0546 19.8193 96.442 19.7377C95.8294 19.6561 95.2902 19.2925 94.9849 18.7552L94.7076 18.8938L94.4642 19.0324C93.9741 19.2553 93.4634 19.4297 92.9394 19.5531C92.3815 19.6751 91.8115 19.7335 91.2404 19.7272C89.7698 19.746 88.3292 19.3103 87.1156 18.4796C85.932 17.6771 84.9954 16.5608 84.4108 15.2558C84.2053 14.7881 84.0434 14.3025 83.9272 13.8051C83.7013 12.7891 83.7013 11.7359 83.9272 10.7199C84.0434 10.2224 84.2053 9.73681 84.4108 9.26918C84.9833 7.94714 85.9217 6.81629 87.1156 6.00992C88.3312 5.18326 89.7704 4.74794 91.2404 4.76231H92.1076V4.8155ZM91.2066 15.6829C91.6714 15.6821 92.1313 15.5878 92.559 15.4057C92.9738 15.2397 93.351 14.992 93.6679 14.6771C93.978 14.3562 94.2251 13.9801 94.3965 13.5681C94.5861 13.1309 94.6806 12.6584 94.6738 12.1819C94.675 11.7283 94.5806 11.2795 94.3965 10.865C94.0325 10.0265 93.3636 9.35759 92.5251 8.99354C92.1105 8.80951 91.6618 8.71503 91.2082 8.71628C90.7635 8.71578 90.3238 8.8103 89.9187 8.99354C89.5052 9.17726 89.1293 9.43573 88.8097 9.75597C88.4882 10.0745 88.2296 10.4507 88.0473 10.865C87.8632 11.2795 87.7688 11.7283 87.77 12.1819C87.7614 12.6476 87.8561 13.1095 88.0473 13.5343C88.2303 13.9481 88.4888 14.3242 88.8097 14.6432C89.1339 14.949 89.5093 15.1956 89.9187 15.3718C90.3232 15.5571 90.7633 15.6518 91.2082 15.6491" fill="#757575"/>
<path d="M102.334 4.74634C103.469 4.76482 104.38 5.69038 104.38 6.82569V12.2691C104.376 12.7344 104.47 13.1953 104.657 13.6215C105.011 14.447 105.669 15.1049 106.495 15.459C106.921 15.6459 107.382 15.7404 107.847 15.7363C108.288 15.738 108.726 15.6554 109.136 15.4929C109.545 15.3307 109.921 15.0958 110.245 14.7997C110.569 14.51 110.829 14.1559 111.008 13.7601C111.193 13.3458 111.287 12.8969 111.285 12.4432V6.79184C111.278 6.42111 111.387 6.0575 111.598 5.75216L111.736 5.57808L111.911 5.40399C112.258 5.00181 112.765 4.77353 113.297 4.78019C113.846 4.77749 114.372 5.00349 114.747 5.40399C115.119 5.74486 115.343 6.21741 115.371 6.72091V12.2675C115.378 13.2687 115.177 14.2604 114.781 15.1802C114.016 16.9732 112.588 18.4014 110.795 19.1664C109.864 19.5648 108.861 19.7657 107.849 19.7563C106.874 19.7966 105.902 19.6187 105.005 19.2357C103.206 18.4902 101.757 17.0905 100.95 15.3188C100.537 14.4307 100.324 13.4628 100.326 12.4834V6.79184C100.313 6.26281 100.513 5.75068 100.88 5.37014C101.252 4.9802 101.764 4.75548 102.302 4.74634" fill="#757575"/>
<path d="M119.079 0.000903562C119.624 -0.0157518 120.151 0.198487 120.53 0.590858C120.925 0.990104 121.16 1.52079 121.189 2.08186V4.43524H127.118C127.67 4.41897 128.2 4.64727 128.568 5.05904C128.93 5.45479 129.129 5.97336 129.123 6.50975C129.114 7.04807 128.889 7.56021 128.499 7.93144C128.143 8.32253 127.641 8.54844 127.113 8.55525H121.194V12.0901C121.195 12.555 121.289 13.0149 121.471 13.4425C121.642 13.8656 121.889 14.2536 122.2 14.587C122.513 14.9147 122.89 15.1743 123.309 15.3494C123.746 15.538 124.219 15.6324 124.695 15.6266C125.166 15.642 125.636 15.5715 126.081 15.4187C126.46 15.2742 126.803 15.0493 127.087 14.7594C127.475 14.3994 127.98 14.1901 128.509 14.1695C129.051 14.1696 129.571 14.3812 129.959 14.7594C130.152 14.9332 130.306 15.1458 130.411 15.3832C130.513 15.6133 130.572 15.8603 130.585 16.1118C130.597 16.3702 130.561 16.6287 130.48 16.8743C130.397 17.1244 130.254 17.3507 130.064 17.5335C129.372 18.2079 128.561 18.7484 127.672 19.1277C126.795 19.4991 125.852 19.6878 124.9 19.6823C123.869 19.6834 122.847 19.4955 121.884 19.1277C120.958 18.7747 120.11 18.2447 119.387 17.5674C118.666 16.8846 118.089 16.0634 117.693 15.1527C117.263 14.1682 117.039 13.1063 117.034 12.0321V1.93518C117.023 1.40288 117.252 0.893937 117.657 0.548949C118.048 0.198733 118.554 0.00378395 119.079 0.000903562Z" fill="#757575"/>
<path d="M139.081 5.05898C140.071 5.05517 141.05 5.25602 141.958 5.64894C142.85 6.02241 143.662 6.56359 144.35 7.24311C145.038 7.93181 145.591 8.74312 145.98 9.63516C146.774 11.4952 146.774 13.5989 145.98 15.459C145.598 16.336 145.058 17.135 144.386 17.8155C142.985 19.2284 141.073 20.0159 139.083 19.9997C138.085 20.0081 137.095 19.8196 136.17 19.4452C135.278 19.0881 134.465 18.5578 133.778 17.8849C130.879 14.9617 130.864 10.2524 133.744 7.31081C134.434 6.63391 135.246 6.09309 136.136 5.71664C137.068 5.31363 138.068 5.08996 139.083 5.05737L139.081 5.05898ZM139.083 9.11291C138.63 9.11563 138.182 9.20994 137.766 9.39015C137.354 9.56159 136.978 9.80871 136.657 10.1187C136.332 10.4344 136.073 10.8113 135.894 11.2277C135.706 11.6652 135.611 12.1375 135.617 12.614C135.614 13.0792 135.708 13.5399 135.894 13.9663C136.077 14.3806 136.335 14.7568 136.657 15.0753C136.976 15.3956 137.352 15.654 137.766 15.8377C138.18 16.0228 138.629 16.1173 139.083 16.115C139.548 16.1192 140.009 16.0247 140.435 15.8377C140.851 15.6593 141.228 15.4001 141.544 15.0753C141.851 14.752 142.098 14.3764 142.273 13.9663C142.46 13.5402 142.554 13.0793 142.55 12.614C142.535 11.7069 142.175 10.8395 141.544 10.188C140.904 9.53523 140.032 9.16157 139.118 9.14837" fill="#757575"/>
</svg>
