<svg width="191" height="26" viewBox="0 0 191 26" fill="none" xmlns="http://www.w3.org/2000/svg">
<path d="M7.164 6.21422C7.95922 6.20754 8.7503 6.32925 9.50673 6.57464C10.2801 6.8289 10.9987 7.22626 11.6253 7.74601C12.8943 6.70492 14.4913 6.14734 16.1326 6.17231C17.0605 6.17237 17.9792 6.35611 18.8358 6.71294C19.6883 7.06436 20.4694 7.56856 21.1408 8.20073C21.807 8.8259 22.3432 9.57646 22.7187 10.4093C23.1113 11.2724 23.3115 12.2105 23.3055 13.1586V23.2504C23.2954 23.9014 22.9986 24.5148 22.4944 24.9267C21.7403 25.6754 20.6113 25.8999 19.6281 25.4967C18.645 25.0936 17.9986 24.1411 17.9871 23.0785V13.2969C18.0039 12.8035 17.8068 12.3268 17.4465 11.9893C17.0889 11.6318 16.6004 11.4364 16.0949 11.4487C15.6363 11.4489 15.192 11.6081 14.8376 11.8992C14.4369 12.2298 14.2187 12.7323 14.2509 13.2508V23.0744C14.2663 23.7708 13.9879 24.4416 13.4839 24.9226C12.9968 25.4175 12.3301 25.6941 11.6357 25.6895C10.9657 25.6849 10.3221 25.4274 9.83363 24.9687C9.31988 24.5488 9.02212 23.9202 9.02268 23.2567V13.2969C9.01628 12.7987 8.80388 12.3253 8.43595 11.9893C7.71959 11.2969 6.58327 11.2969 5.86691 11.9893C5.50689 12.331 5.29607 12.8008 5.28018 13.2969V23.3007C5.23436 23.9426 4.94412 24.5426 4.46923 24.977C3.98921 25.4488 3.34009 25.7085 2.66713 25.6979C2.31291 25.7064 1.96047 25.6451 1.62987 25.5177C1.31113 25.3961 1.01978 25.2124 0.772825 24.977C0.521644 24.7168 0.322497 24.411 0.186094 24.076C0.0416749 23.7666 -0.0203996 23.4252 0.00588371 23.0848V13.1544C-0.00311404 12.2399 0.181115 11.3337 0.546514 10.4953C0.90968 9.66922 1.42748 8.92025 2.07202 8.28874C2.72518 7.65871 3.48879 7.15438 4.32464 6.80095C5.20879 6.43106 6.15959 6.24703 7.1179 6.26032" fill="#E41819"/>
<path d="M36.1419 6.26033C37.3241 6.38854 38.4712 6.74055 39.5219 7.29759C40.563 7.84397 41.4949 8.57698 42.2711 9.46011C43.0378 10.3406 43.6474 11.3465 44.0732 12.4336C44.5213 13.5517 44.7511 14.7452 44.7501 15.9498V23.0744C44.7601 23.7788 44.4643 24.453 43.9391 24.9226C43.3731 25.4928 42.5729 25.7653 41.7765 25.6592C40.9801 25.5531 40.2792 25.0805 39.8823 24.3819L39.5219 24.5621L39.2054 24.7424C38.5683 25.0321 37.9044 25.2588 37.2231 25.4192C36.4978 25.5778 35.7569 25.6538 35.0145 25.6455C33.1027 25.67 31.23 25.1036 29.6522 24.0236C28.1135 22.9805 26.8959 21.5292 26.136 19.8327C25.8688 19.2248 25.6583 18.5934 25.5074 17.9468C25.2137 16.626 25.2137 15.2568 25.5074 13.936C25.6583 13.2894 25.8688 12.658 26.136 12.0501C26.8802 10.3315 28.1002 8.86136 29.6522 7.81307C31.2325 6.73842 33.1035 6.17251 35.0145 6.19118H36.1419V6.26033ZM35.0145 20.4782C35.6188 20.477 36.2167 20.3544 36.7726 20.1177C37.3119 19.9019 37.8022 19.5798 38.2143 19.1705C38.6173 18.7534 38.9386 18.2643 39.1614 17.7288C39.4079 17.1605 39.5308 16.5462 39.5219 15.9267C39.5235 15.3371 39.4007 14.7537 39.1614 14.2147C38.6882 13.1247 37.8186 12.2552 36.7286 11.7819C36.1896 11.5426 35.6063 11.4198 35.0166 11.4215C34.4385 11.4208 33.867 11.5437 33.3402 11.7819C32.8028 12.0207 32.314 12.3567 31.8985 12.773C31.4806 13.1871 31.1444 13.6762 30.9074 14.2147C30.6682 14.7537 30.5453 15.3371 30.547 15.9267C30.5358 16.5322 30.6589 17.1326 30.9074 17.6848C31.1453 18.2228 31.4814 18.7117 31.8985 19.1265C32.3166 19.5397 32.8047 19.8753 33.3402 20.1177C33.8661 20.3586 34.4382 20.4816 35.0166 20.4782" fill="#E41819"/>
<path d="M49.6157 0.00117463C50.3243 -0.0204774 51.0092 0.258033 51.5016 0.768116C52.0156 1.28702 52.3207 1.97699 52.3586 2.70642V5.76581H60.0658C60.7833 5.74467 61.4735 6.04146 61.9517 6.57675C62.4225 7.09122 62.6801 7.76536 62.6725 8.46267C62.6606 9.16249 62.3685 9.82828 61.8616 10.3109C61.3993 10.8193 60.7466 11.113 60.0595 11.1218H52.3649V15.7172C52.366 16.3215 52.4886 16.9193 52.7253 17.4753C52.9469 18.0252 53.268 18.5296 53.6725 18.9631C54.0797 19.3892 54.5705 19.7266 55.1142 19.9542C55.683 20.1994 56.297 20.3222 56.9163 20.3146C57.5284 20.3346 58.1391 20.243 58.7184 20.0443C59.211 19.8564 59.6571 19.564 60.026 19.1873C60.5307 18.7192 61.1863 18.4472 61.8742 18.4203C62.5787 18.4204 63.2554 18.6956 63.7601 19.1873C64.0108 19.4131 64.2107 19.6895 64.3468 19.9982C64.4799 20.2973 64.5566 20.6184 64.5731 20.9454C64.5887 21.2813 64.5425 21.6172 64.4369 21.9365C64.3287 22.2617 64.1432 22.5558 63.8963 22.7936C62.9964 23.6702 61.9421 24.3729 60.7866 24.866C59.6461 25.3491 58.4189 25.5944 57.1803 25.587C55.8403 25.5884 54.5115 25.3441 53.2597 24.866C52.057 24.4069 50.9552 23.7179 50.0159 22.8376C49.0782 21.95 48.3291 20.8824 47.8136 19.6986C47.255 18.4187 46.9634 17.0382 46.9565 15.6417V2.51574C46.9426 1.82375 47.2403 1.16212 47.7675 0.713634C48.2758 0.258352 48.9333 0.00491914 49.6157 0.00117463Z" fill="#E41819"/>
<path d="M68.5886 25.6832C67.9149 25.6979 67.2643 25.4376 66.7865 24.9624C66.2917 24.4714 66.0018 23.8108 65.9756 23.1142V15.7235C65.9904 14.4637 66.2665 13.2207 66.7865 12.0732C67.286 10.9616 67.9889 9.95309 68.8589 9.09972C69.7449 8.23863 70.7839 7.55069 71.9225 7.0713C73.0941 6.57985 74.3451 6.30508 75.6147 6.26036C76.3104 6.24932 76.9795 6.52698 77.4629 7.0273C77.9471 7.52555 78.2351 8.18186 78.2739 8.8755C78.2952 9.57306 78.0158 10.2462 77.5069 10.7237C76.9996 11.2113 76.3246 11.4858 75.621 11.4906C74.436 11.481 73.2979 11.9529 72.4673 12.7982C72.0635 13.2147 71.7421 13.7039 71.5202 14.2399C71.2738 14.8083 71.1509 15.4226 71.1598 16.042V23.2986C71.1246 23.9445 70.8514 24.5544 70.3928 25.0106C69.891 25.4726 69.2261 25.7161 68.5446 25.6874" fill="#E41819"/>
<path d="M82.3811 0.177207C83.0638 0.16354 83.7197 0.442687 84.1832 0.944148C84.6613 1.43885 84.9209 2.10462 84.9041 2.79235C84.9209 3.48008 84.6613 4.14585 84.1832 4.64055C83.7197 5.14201 83.0638 5.42116 82.3811 5.40749C81.6846 5.41076 81.012 5.15367 80.4952 4.68665C79.9702 4.1644 79.6915 3.44393 79.7283 2.70434C79.7437 2.03135 80.0373 1.39484 80.5392 0.946243C81.0272 0.456263 81.6896 0.179718 82.3811 0.177207ZM82.3811 6.30645C83.049 6.29524 83.6888 6.57427 84.135 7.0713C84.5965 7.58026 84.8675 8.23333 84.902 8.9195V23.1687C84.9243 23.8354 84.6808 24.4836 84.2251 24.9708C83.7369 25.4696 83.0746 25.7602 82.3769 25.7817C81.7328 25.8001 81.1053 25.5757 80.6188 25.1531C80.1083 24.6827 79.7877 24.0416 79.7178 23.351V8.78329C79.7627 8.12088 80.0714 7.50416 80.5748 7.0713C81.07 6.62333 81.7094 6.3676 82.3769 6.35045" fill="#E41819"/>
<path d="M104.283 6.2163C104.963 6.21377 105.615 6.49109 106.085 6.98325C106.56 7.46451 106.835 8.10896 106.852 8.78536C106.863 9.48099 106.585 10.1501 106.085 10.6336L105.678 11.0401L105.272 11.4466L100.811 15.9079L96.3032 20.3691H104.281C105.731 20.4181 106.875 21.6211 106.85 23.0723C106.826 24.4812 105.69 25.6178 104.281 25.6413H89.9498C89.2693 25.6438 88.6176 25.3665 88.1477 24.8744C87.6411 24.4145 87.361 23.7561 87.3807 23.0723C87.3155 22.3903 87.5841 21.719 88.1016 21.2702L97.8811 11.4466H89.9498C89.2693 11.409 88.6271 11.12 88.1477 10.6357C87.6052 10.182 87.3188 9.49186 87.3807 8.78745C87.361 8.10358 87.6411 7.44525 88.1477 6.98535C88.6111 6.48389 89.2671 6.20474 89.9498 6.21841L104.283 6.2163Z" fill="#E41819"/>
<path d="M119.741 6.26033C120.923 6.38859 122.07 6.7406 123.121 7.29759C124.162 7.84397 125.094 8.57698 125.87 9.46011C126.636 10.3406 127.246 11.3464 127.672 12.4336C128.12 13.5516 128.35 14.7452 128.349 15.9498V23.0744C128.353 23.7776 128.058 24.4494 127.538 24.9226C126.972 25.4928 126.172 25.7653 125.375 25.6592C124.579 25.5531 123.878 25.0805 123.481 24.3819L123.121 24.5621L122.804 24.7424C122.167 25.0321 121.503 25.2588 120.822 25.4192C120.096 25.5779 119.356 25.6538 118.613 25.6455C116.701 25.67 114.829 25.1036 113.251 24.0236C111.712 22.9804 110.495 21.5292 109.735 19.8327C109.467 19.2247 109.257 18.5934 109.106 17.9468C108.812 16.626 108.812 15.2568 109.106 13.936C109.257 13.2894 109.467 12.658 109.735 12.0501C110.479 10.3315 111.699 8.86136 113.251 7.81307C114.831 6.73842 116.702 6.17251 118.613 6.19118H119.741V6.26033ZM118.569 20.388C119.173 20.3869 119.771 20.2643 120.327 20.0276C120.867 19.8118 121.357 19.4897 121.769 19.0804C122.172 18.6633 122.493 18.1743 122.716 17.6387C122.963 17.0703 123.085 16.4561 123.076 15.8366C123.078 15.247 122.955 14.6636 122.716 14.1246C122.243 13.0346 121.373 12.1651 120.283 11.6918C119.744 11.4525 119.161 11.3297 118.571 11.3313C117.993 11.3307 117.422 11.4536 116.895 11.6918C116.357 11.9306 115.869 12.2666 115.453 12.6829C115.035 13.097 114.699 13.5861 114.462 14.1246C114.223 14.6636 114.1 15.247 114.102 15.8366C114.09 16.4421 114.214 17.0425 114.462 17.5947C114.7 18.1327 115.036 18.6216 115.453 19.0364C115.875 19.4339 116.363 19.7545 116.895 19.9836C117.421 20.2245 117.993 20.3475 118.571 20.344" fill="#E41819"/>
<path d="M133.035 6.17023C134.51 6.19425 135.694 7.39749 135.694 8.87338V15.9498C135.688 16.5547 135.811 17.1539 136.054 17.7079C136.514 18.7811 137.37 19.6364 138.443 20.0967C138.997 20.3397 139.596 20.4626 140.201 20.4571C140.775 20.4594 141.344 20.352 141.877 20.1407C142.408 19.9299 142.897 19.6246 143.319 19.2397C143.74 18.863 144.078 18.4027 144.31 17.8881C144.551 17.3496 144.674 16.7659 144.671 16.1761V8.82938C144.662 8.34743 144.804 7.87473 145.077 7.4778L145.257 7.25149L145.484 7.02518C145.935 6.50234 146.595 6.20557 147.286 6.21423C148 6.21072 148.683 6.50453 149.172 7.02518C149.655 7.46831 149.946 8.08262 149.983 8.73718V15.9477C149.991 17.2493 149.73 18.5385 149.216 19.7342C148.221 22.0652 146.365 23.9219 144.034 24.9163C142.824 25.4343 141.519 25.6954 140.203 25.6832C138.936 25.7356 137.673 25.5044 136.507 25.0064C134.168 24.0372 132.284 22.2176 131.235 19.9144C130.698 18.7599 130.421 17.5017 130.424 16.2285V8.82938C130.407 8.14164 130.666 7.47588 131.144 6.98117C131.627 6.47424 132.293 6.18211 132.993 6.17023" fill="#E41819"/>
<path d="M154.802 0.00117463C155.511 -0.0204774 156.196 0.258033 156.688 0.768116C157.202 1.28714 157.507 1.97703 157.545 2.70642V5.76581H165.252C165.97 5.74467 166.66 6.04146 167.138 6.57675C167.609 7.09122 167.867 7.76536 167.859 8.46267C167.847 9.16249 167.555 9.82828 167.048 10.3109C166.586 10.8193 165.933 11.113 165.246 11.1218H157.551V15.7172C157.552 16.3215 157.675 16.9193 157.912 17.4753C158.133 18.0252 158.454 18.5296 158.859 18.9631C159.266 19.3892 159.757 19.7266 160.301 19.9542C160.869 20.1994 161.483 20.3222 162.103 20.3146C162.715 20.3346 163.326 20.243 163.905 20.0443C164.398 19.8565 164.844 19.5641 165.212 19.1873C165.717 18.7192 166.373 18.4472 167.061 18.4203C167.765 18.4204 168.442 18.6956 168.947 19.1873C169.197 19.4131 169.397 19.6895 169.533 19.9982C169.666 20.2973 169.743 20.6184 169.76 20.9454C169.775 21.2813 169.729 21.6173 169.623 21.9365C169.515 22.2618 169.33 22.5559 169.083 22.7936C168.183 23.6702 167.129 24.3729 165.973 24.866C164.833 25.3489 163.607 25.5941 162.369 25.587C161.029 25.5884 159.7 25.3441 158.448 24.866C157.245 24.4071 156.142 23.7181 155.202 22.8376C154.265 21.95 153.516 20.8824 153 19.6986C152.441 18.4186 152.15 17.0382 152.143 15.6417V2.51574C152.129 1.82375 152.427 1.16212 152.954 0.713634C153.462 0.258352 154.12 0.00491914 154.802 0.00117463Z" fill="#E41819"/>
<path d="M180.805 6.57674C182.091 6.57178 183.365 6.83289 184.545 7.34368C185.705 7.8292 186.761 8.53272 187.655 9.4161C188.549 10.3114 189.268 11.3661 189.774 12.5258C190.806 14.9438 190.806 17.6787 189.774 20.0967C189.277 21.2369 188.575 22.2755 187.701 23.1603C185.88 24.997 183.394 26.0207 180.807 25.9996C179.51 26.0105 178.223 25.7656 177.021 25.2788C175.86 24.8146 174.803 24.1252 173.911 23.2504C170.142 19.4503 170.122 13.3282 173.867 9.50411C174.764 8.62415 175.819 7.92108 176.977 7.43169C178.188 6.90778 179.488 6.61702 180.807 6.57465L180.805 6.57674ZM180.807 11.8468C180.218 11.8504 179.636 11.973 179.095 12.2073C178.559 12.4301 178.07 12.7514 177.653 13.1544C177.231 13.5648 176.894 14.0548 176.662 14.5961C176.417 15.1648 176.294 15.7789 176.302 16.3982C176.298 17.003 176.42 17.6019 176.662 18.1563C176.899 18.6948 177.235 19.1839 177.653 19.598C178.069 20.0143 178.558 20.3503 179.095 20.5891C179.634 20.8297 180.217 20.9525 180.807 20.9496C181.412 20.955 182.011 20.8321 182.565 20.5891C183.106 20.3571 183.596 20.0202 184.007 19.598C184.406 19.1777 184.727 18.6894 184.954 18.1563C185.197 17.6023 185.32 17.0031 185.314 16.3982C185.295 15.219 184.827 14.0915 184.007 13.2445C183.175 12.3959 182.041 11.9101 180.853 11.8929" fill="#E41819"/>
</svg>
